<svg width="1440" height="516" viewBox="0 0 1440 516" fill="none" xmlns="http://www.w3.org/2000/svg">
<g clip-path="url(#clip0_1759_128253)">
<circle cx="548.5" cy="418.5" r="1.5" fill="#BEC3D3" fill-opacity="0.42"/>
<circle cx="548.5" cy="466.5" r="1.5" fill="#BEC3D3" fill-opacity="0.42"/>
<circle cx="548.5" cy="394.5" r="1.5" fill="#BEC3D3" fill-opacity="0.42"/>
<circle cx="548.5" cy="442.5" r="1.5" fill="#BEC3D3" fill-opacity="0.42"/>
<circle cx="572.5" cy="418.5" r="1.5" fill="#BEC3D3" fill-opacity="0.42"/>
<circle cx="572.5" cy="466.5" r="1.5" fill="#BEC3D3" fill-opacity="0.42"/>
<circle cx="572.5" cy="394.5" r="1.5" fill="#BEC3D3" fill-opacity="0.42"/>
<circle cx="572.5" cy="442.5" r="1.5" fill="#BEC3D3" fill-opacity="0.42"/>
<circle cx="596.5" cy="418.5" r="1.5" fill="#BEC3D3" fill-opacity="0.42"/>
<circle cx="596.5" cy="466.5" r="1.5" fill="#BEC3D3" fill-opacity="0.42"/>
<circle cx="596.5" cy="394.5" r="1.5" fill="#BEC3D3" fill-opacity="0.42"/>
<circle cx="596.5" cy="442.5" r="1.5" fill="#BEC3D3" fill-opacity="0.42"/>
<circle cx="475.5" cy="418.5" r="1.5" fill="#BEC3D3" fill-opacity="0.42"/>
<circle cx="475.5" cy="466.5" r="1.5" fill="#BEC3D3" fill-opacity="0.42"/>
<circle cx="475.5" cy="394.5" r="1.5" fill="#BEC3D3" fill-opacity="0.42"/>
<circle cx="475.5" cy="442.5" r="1.5" fill="#BEC3D3" fill-opacity="0.42"/>
<circle cx="621.5" cy="418.5" r="1.5" fill="#BEC3D3" fill-opacity="0.42"/>
<circle cx="621.5" cy="466.5" r="1.5" fill="#BEC3D3" fill-opacity="0.42"/>
<circle cx="621.5" cy="394.5" r="1.5" fill="#BEC3D3" fill-opacity="0.42"/>
<circle cx="621.5" cy="442.5" r="1.5" fill="#BEC3D3" fill-opacity="0.42"/>
<circle cx="500.5" cy="418.5" r="1.5" fill="#BEC3D3" fill-opacity="0.42"/>
<circle cx="500.5" cy="466.5" r="1.5" fill="#BEC3D3" fill-opacity="0.42"/>
<circle cx="500.5" cy="394.5" r="1.5" fill="#BEC3D3" fill-opacity="0.42"/>
<circle cx="500.5" cy="442.5" r="1.5" fill="#BEC3D3" fill-opacity="0.42"/>
<circle cx="524.5" cy="418.5" r="1.5" fill="#BEC3D3" fill-opacity="0.42"/>
<circle cx="524.5" cy="466.5" r="1.5" fill="#BEC3D3" fill-opacity="0.42"/>
<circle cx="524.5" cy="394.5" r="1.5" fill="#BEC3D3" fill-opacity="0.42"/>
<circle cx="524.5" cy="442.5" r="1.5" fill="#BEC3D3" fill-opacity="0.42"/>
</g>
<g clip-path="url(#clip1_1759_128253)">
<circle cx="911.5" cy="420.5" r="1.5" fill="#BEC3D3" fill-opacity="0.42"/>
<circle cx="911.5" cy="468.5" r="1.5" fill="#BEC3D3" fill-opacity="0.42"/>
<circle cx="911.5" cy="396.5" r="1.5" fill="#BEC3D3" fill-opacity="0.42"/>
<circle cx="911.5" cy="444.5" r="1.5" fill="#BEC3D3" fill-opacity="0.42"/>
<circle cx="935.5" cy="420.5" r="1.5" fill="#BEC3D3" fill-opacity="0.42"/>
<circle cx="935.5" cy="468.5" r="1.5" fill="#BEC3D3" fill-opacity="0.42"/>
<circle cx="935.5" cy="396.5" r="1.5" fill="#BEC3D3" fill-opacity="0.42"/>
<circle cx="935.5" cy="444.5" r="1.5" fill="#BEC3D3" fill-opacity="0.42"/>
<circle cx="959.5" cy="420.5" r="1.5" fill="#BEC3D3" fill-opacity="0.42"/>
<circle cx="959.5" cy="468.5" r="1.5" fill="#BEC3D3" fill-opacity="0.42"/>
<circle cx="959.5" cy="396.5" r="1.5" fill="#BEC3D3" fill-opacity="0.42"/>
<circle cx="959.5" cy="444.5" r="1.5" fill="#BEC3D3" fill-opacity="0.42"/>
<circle cx="838.5" cy="420.5" r="1.5" fill="#BEC3D3" fill-opacity="0.42"/>
<circle cx="838.5" cy="468.5" r="1.5" fill="#BEC3D3" fill-opacity="0.42"/>
<circle cx="838.5" cy="396.5" r="1.5" fill="#BEC3D3" fill-opacity="0.42"/>
<circle cx="838.5" cy="444.5" r="1.5" fill="#BEC3D3" fill-opacity="0.42"/>
<circle cx="984.5" cy="420.5" r="1.5" fill="#BEC3D3" fill-opacity="0.42"/>
<circle cx="984.5" cy="468.5" r="1.5" fill="#BEC3D3" fill-opacity="0.42"/>
<circle cx="984.5" cy="396.5" r="1.5" fill="#BEC3D3" fill-opacity="0.42"/>
<circle cx="984.5" cy="444.5" r="1.5" fill="#BEC3D3" fill-opacity="0.42"/>
<circle cx="863.5" cy="420.5" r="1.5" fill="#BEC3D3" fill-opacity="0.42"/>
<circle cx="863.5" cy="468.5" r="1.5" fill="#BEC3D3" fill-opacity="0.42"/>
<circle cx="863.5" cy="396.5" r="1.5" fill="#BEC3D3" fill-opacity="0.42"/>
<circle cx="863.5" cy="444.5" r="1.5" fill="#BEC3D3" fill-opacity="0.42"/>
<circle cx="1008.5" cy="420.5" r="1.5" fill="#BEC3D3" fill-opacity="0.42"/>
<circle cx="1008.5" cy="468.5" r="1.5" fill="#BEC3D3" fill-opacity="0.42"/>
<circle cx="1008.5" cy="396.5" r="1.5" fill="#BEC3D3" fill-opacity="0.42"/>
<circle cx="1008.5" cy="444.5" r="1.5" fill="#BEC3D3" fill-opacity="0.42"/>
<circle cx="887.5" cy="420.5" r="1.5" fill="#BEC3D3" fill-opacity="0.42"/>
<circle cx="887.5" cy="468.5" r="1.5" fill="#BEC3D3" fill-opacity="0.42"/>
<circle cx="887.5" cy="396.5" r="1.5" fill="#BEC3D3" fill-opacity="0.42"/>
<circle cx="887.5" cy="444.5" r="1.5" fill="#BEC3D3" fill-opacity="0.42"/>
</g>
<g clip-path="url(#clip2_1759_128253)">
<circle cx="1346.5" cy="393.5" r="1.5" fill="#BEC3D3" fill-opacity="0.42"/>
<circle cx="1346.5" cy="442.5" r="1.5" fill="#BEC3D3" fill-opacity="0.42"/>
<circle cx="1346.5" cy="490.5" r="1.5" fill="#BEC3D3" fill-opacity="0.42"/>
<circle cx="1346.5" cy="418.5" r="1.5" fill="#BEC3D3" fill-opacity="0.42"/>
<circle cx="1346.5" cy="466.5" r="1.5" fill="#BEC3D3" fill-opacity="0.42"/>
<circle cx="1370.5" cy="393.5" r="1.5" fill="#BEC3D3" fill-opacity="0.42"/>
<circle cx="1370.5" cy="442.5" r="1.5" fill="#BEC3D3" fill-opacity="0.42"/>
<circle cx="1370.5" cy="490.5" r="1.5" fill="#BEC3D3" fill-opacity="0.42"/>
<circle cx="1370.5" cy="418.5" r="1.5" fill="#BEC3D3" fill-opacity="0.42"/>
<circle cx="1370.5" cy="466.5" r="1.5" fill="#BEC3D3" fill-opacity="0.42"/>
<circle cx="1394.5" cy="393.5" r="1.5" fill="#BEC3D3" fill-opacity="0.42"/>
<circle cx="1394.5" cy="442.5" r="1.5" fill="#BEC3D3" fill-opacity="0.42"/>
<circle cx="1394.5" cy="490.5" r="1.5" fill="#BEC3D3" fill-opacity="0.42"/>
<circle cx="1394.5" cy="418.5" r="1.5" fill="#BEC3D3" fill-opacity="0.42"/>
<circle cx="1394.5" cy="466.5" r="1.5" fill="#BEC3D3" fill-opacity="0.42"/>
<circle cx="1273.5" cy="393.5" r="1.5" fill="#BEC3D3" fill-opacity="0.42"/>
<circle cx="1273.5" cy="442.5" r="1.5" fill="#BEC3D3" fill-opacity="0.42"/>
<circle cx="1273.5" cy="490.5" r="1.5" fill="#BEC3D3" fill-opacity="0.42"/>
<circle cx="1273.5" cy="418.5" r="1.5" fill="#BEC3D3" fill-opacity="0.42"/>
<circle cx="1273.5" cy="466.5" r="1.5" fill="#BEC3D3" fill-opacity="0.42"/>
<circle cx="1419.5" cy="393.5" r="1.5" fill="#BEC3D3" fill-opacity="0.42"/>
<circle cx="1419.5" cy="442.5" r="1.5" fill="#BEC3D3" fill-opacity="0.42"/>
<circle cx="1419.5" cy="490.5" r="1.5" fill="#BEC3D3" fill-opacity="0.42"/>
<circle cx="1419.5" cy="418.5" r="1.5" fill="#BEC3D3" fill-opacity="0.42"/>
<circle cx="1419.5" cy="466.5" r="1.5" fill="#BEC3D3" fill-opacity="0.42"/>
<circle cx="1298.5" cy="393.5" r="1.5" fill="#BEC3D3" fill-opacity="0.42"/>
<circle cx="1298.5" cy="442.5" r="1.5" fill="#BEC3D3" fill-opacity="0.42"/>
<circle cx="1298.5" cy="490.5" r="1.5" fill="#BEC3D3" fill-opacity="0.42"/>
<circle cx="1298.5" cy="418.5" r="1.5" fill="#BEC3D3" fill-opacity="0.42"/>
<circle cx="1298.5" cy="466.5" r="1.5" fill="#BEC3D3" fill-opacity="0.42"/>
<circle cx="1322.5" cy="393.5" r="1.5" fill="#BEC3D3" fill-opacity="0.42"/>
<circle cx="1322.5" cy="442.5" r="1.5" fill="#BEC3D3" fill-opacity="0.42"/>
<circle cx="1322.5" cy="490.5" r="1.5" fill="#BEC3D3" fill-opacity="0.42"/>
<circle cx="1322.5" cy="418.5" r="1.5" fill="#BEC3D3" fill-opacity="0.42"/>
<circle cx="1322.5" cy="466.5" r="1.5" fill="#BEC3D3" fill-opacity="0.42"/>
</g>
<g clip-path="url(#clip3_1759_128253)">
<circle cx="126.5" cy="33.5" r="1.5" fill="#BEC3D3" fill-opacity="0.42"/>
<circle cx="126.5" cy="82.5" r="1.5" fill="#BEC3D3" fill-opacity="0.42"/>
<circle cx="126.5" cy="130.5" r="1.5" fill="#BEC3D3" fill-opacity="0.42"/>
<circle cx="126.5" cy="179.5" r="1.5" fill="#BEC3D3" fill-opacity="0.42"/>
<circle cx="126.5" cy="9.5" r="1.5" fill="#BEC3D3" fill-opacity="0.42"/>
<circle cx="126.5" cy="58.5" r="1.5" fill="#BEC3D3" fill-opacity="0.42"/>
<circle cx="126.5" cy="106.5" r="1.5" fill="#BEC3D3" fill-opacity="0.42"/>
<circle cx="126.5" cy="154.5" r="1.5" fill="#BEC3D3" fill-opacity="0.42"/>
<circle cx="126.5" cy="203.5" r="1.5" fill="#BEC3D3" fill-opacity="0.42"/>
<circle cx="5.5" cy="33.5" r="1.5" fill="#BEC3D3" fill-opacity="0.42"/>
<circle cx="5.5" cy="82.5" r="1.5" fill="#BEC3D3" fill-opacity="0.42"/>
<circle cx="5.5" cy="130.5" r="1.5" fill="#BEC3D3" fill-opacity="0.42"/>
<circle cx="5.5" cy="179.5" r="1.5" fill="#BEC3D3" fill-opacity="0.42"/>
<circle cx="5.5" cy="9.5" r="1.5" fill="#BEC3D3" fill-opacity="0.42"/>
<circle cx="5.5" cy="58.5" r="1.5" fill="#BEC3D3" fill-opacity="0.42"/>
<circle cx="5.5" cy="106.5" r="1.5" fill="#BEC3D3" fill-opacity="0.42"/>
<circle cx="5.5" cy="154.5" r="1.5" fill="#BEC3D3" fill-opacity="0.42"/>
<circle cx="5.5" cy="203.5" r="1.5" fill="#BEC3D3" fill-opacity="0.42"/>
<circle cx="150.5" cy="33.5" r="1.5" fill="#BEC3D3" fill-opacity="0.42"/>
<circle cx="150.5" cy="82.5" r="1.5" fill="#BEC3D3" fill-opacity="0.42"/>
<circle cx="150.5" cy="130.5" r="1.5" fill="#BEC3D3" fill-opacity="0.42"/>
<circle cx="150.5" cy="179.5" r="1.5" fill="#BEC3D3" fill-opacity="0.42"/>
<circle cx="150.5" cy="9.5" r="1.5" fill="#BEC3D3" fill-opacity="0.42"/>
<circle cx="150.5" cy="58.5" r="1.5" fill="#BEC3D3" fill-opacity="0.42"/>
<circle cx="150.5" cy="106.5" r="1.5" fill="#BEC3D3" fill-opacity="0.42"/>
<circle cx="150.5" cy="154.5" r="1.5" fill="#BEC3D3" fill-opacity="0.42"/>
<circle cx="150.5" cy="203.5" r="1.5" fill="#BEC3D3" fill-opacity="0.42"/>
<circle cx="29.5" cy="33.5" r="1.5" fill="#BEC3D3" fill-opacity="0.42"/>
<circle cx="29.5" cy="82.5" r="1.5" fill="#BEC3D3" fill-opacity="0.42"/>
<circle cx="29.5" cy="130.5" r="1.5" fill="#BEC3D3" fill-opacity="0.42"/>
<circle cx="29.5" cy="179.5" r="1.5" fill="#BEC3D3" fill-opacity="0.42"/>
<circle cx="29.5" cy="9.5" r="1.5" fill="#BEC3D3" fill-opacity="0.42"/>
<circle cx="29.5" cy="58.5" r="1.5" fill="#BEC3D3" fill-opacity="0.42"/>
<circle cx="29.5" cy="106.5" r="1.5" fill="#BEC3D3" fill-opacity="0.42"/>
<circle cx="29.5" cy="154.5" r="1.5" fill="#BEC3D3" fill-opacity="0.42"/>
<circle cx="29.5" cy="203.5" r="1.5" fill="#BEC3D3" fill-opacity="0.42"/>
<circle cx="174.5" cy="33.5" r="1.5" fill="#BEC3D3" fill-opacity="0.42"/>
<circle cx="174.5" cy="82.5" r="1.5" fill="#BEC3D3" fill-opacity="0.42"/>
<circle cx="174.5" cy="130.5" r="1.5" fill="#BEC3D3" fill-opacity="0.42"/>
<circle cx="174.5" cy="179.5" r="1.5" fill="#BEC3D3" fill-opacity="0.42"/>
<circle cx="174.5" cy="9.5" r="1.5" fill="#BEC3D3" fill-opacity="0.42"/>
<circle cx="174.5" cy="58.5" r="1.5" fill="#BEC3D3" fill-opacity="0.42"/>
<circle cx="174.5" cy="106.5" r="1.5" fill="#BEC3D3" fill-opacity="0.42"/>
<circle cx="174.5" cy="154.5" r="1.5" fill="#BEC3D3" fill-opacity="0.42"/>
<circle cx="174.5" cy="203.5" r="1.5" fill="#BEC3D3" fill-opacity="0.42"/>
<circle cx="53.5" cy="33.5" r="1.5" fill="#BEC3D3" fill-opacity="0.42"/>
<circle cx="53.5" cy="82.5" r="1.5" fill="#BEC3D3" fill-opacity="0.42"/>
<circle cx="53.5" cy="130.5" r="1.5" fill="#BEC3D3" fill-opacity="0.42"/>
<circle cx="53.5" cy="179.5" r="1.5" fill="#BEC3D3" fill-opacity="0.42"/>
<circle cx="53.5" cy="9.5" r="1.5" fill="#BEC3D3" fill-opacity="0.42"/>
<circle cx="53.5" cy="58.5" r="1.5" fill="#BEC3D3" fill-opacity="0.42"/>
<circle cx="53.5" cy="106.5" r="1.5" fill="#BEC3D3" fill-opacity="0.42"/>
<circle cx="53.5" cy="154.5" r="1.5" fill="#BEC3D3" fill-opacity="0.42"/>
<circle cx="53.5" cy="203.5" r="1.5" fill="#BEC3D3" fill-opacity="0.42"/>
<circle cx="199.5" cy="33.5" r="1.5" fill="#BEC3D3" fill-opacity="0.42"/>
<circle cx="199.5" cy="82.5" r="1.5" fill="#BEC3D3" fill-opacity="0.42"/>
<circle cx="199.5" cy="130.5" r="1.5" fill="#BEC3D3" fill-opacity="0.42"/>
<circle cx="199.5" cy="179.5" r="1.5" fill="#BEC3D3" fill-opacity="0.42"/>
<circle cx="199.5" cy="9.5" r="1.5" fill="#BEC3D3" fill-opacity="0.42"/>
<circle cx="199.5" cy="58.5" r="1.5" fill="#BEC3D3" fill-opacity="0.42"/>
<circle cx="199.5" cy="106.5" r="1.5" fill="#BEC3D3" fill-opacity="0.42"/>
<circle cx="199.5" cy="154.5" r="1.5" fill="#BEC3D3" fill-opacity="0.42"/>
<circle cx="199.5" cy="203.5" r="1.5" fill="#BEC3D3" fill-opacity="0.42"/>
<circle cx="78.5" cy="33.5" r="1.5" fill="#BEC3D3" fill-opacity="0.42"/>
<circle cx="78.5" cy="82.5" r="1.5" fill="#BEC3D3" fill-opacity="0.42"/>
<circle cx="78.5" cy="130.5" r="1.5" fill="#BEC3D3" fill-opacity="0.42"/>
<circle cx="78.5" cy="179.5" r="1.5" fill="#BEC3D3" fill-opacity="0.42"/>
<circle cx="78.5" cy="9.5" r="1.5" fill="#BEC3D3" fill-opacity="0.42"/>
<circle cx="78.5" cy="58.5" r="1.5" fill="#BEC3D3" fill-opacity="0.42"/>
<circle cx="78.5" cy="106.5" r="1.5" fill="#BEC3D3" fill-opacity="0.42"/>
<circle cx="78.5" cy="154.5" r="1.5" fill="#BEC3D3" fill-opacity="0.42"/>
<circle cx="78.5" cy="203.5" r="1.5" fill="#BEC3D3" fill-opacity="0.42"/>
<circle cx="223.5" cy="33.5" r="1.5" fill="#BEC3D3" fill-opacity="0.42"/>
<circle cx="223.5" cy="82.5" r="1.5" fill="#BEC3D3" fill-opacity="0.42"/>
<circle cx="223.5" cy="130.5" r="1.5" fill="#BEC3D3" fill-opacity="0.42"/>
<circle cx="223.5" cy="179.5" r="1.5" fill="#BEC3D3" fill-opacity="0.42"/>
<circle cx="223.5" cy="9.5" r="1.5" fill="#BEC3D3" fill-opacity="0.42"/>
<circle cx="223.5" cy="58.5" r="1.5" fill="#BEC3D3" fill-opacity="0.42"/>
<circle cx="223.5" cy="106.5" r="1.5" fill="#BEC3D3" fill-opacity="0.42"/>
<circle cx="223.5" cy="154.5" r="1.5" fill="#BEC3D3" fill-opacity="0.42"/>
<circle cx="223.5" cy="203.5" r="1.5" fill="#BEC3D3" fill-opacity="0.42"/>
<circle cx="102.5" cy="33.5" r="1.5" fill="#BEC3D3" fill-opacity="0.42"/>
<circle cx="102.5" cy="82.5" r="1.5" fill="#BEC3D3" fill-opacity="0.42"/>
<circle cx="102.5" cy="130.5" r="1.5" fill="#BEC3D3" fill-opacity="0.42"/>
<circle cx="102.5" cy="179.5" r="1.5" fill="#BEC3D3" fill-opacity="0.42"/>
<circle cx="102.5" cy="9.5" r="1.5" fill="#BEC3D3" fill-opacity="0.42"/>
<circle cx="102.5" cy="58.5" r="1.5" fill="#BEC3D3" fill-opacity="0.42"/>
<circle cx="102.5" cy="106.5" r="1.5" fill="#BEC3D3" fill-opacity="0.42"/>
<circle cx="102.5" cy="154.5" r="1.5" fill="#BEC3D3" fill-opacity="0.42"/>
<circle cx="102.5" cy="203.5" r="1.5" fill="#BEC3D3" fill-opacity="0.42"/>
<g clip-path="url(#clip4_1759_128253)">
<circle cx="126.5" cy="228.5" r="1.5" fill="#BEC3D3" fill-opacity="0.42"/>
<circle cx="126.5" cy="276.5" r="1.5" fill="#BEC3D3" fill-opacity="0.42"/>
<circle cx="126.5" cy="325.5" r="1.5" fill="#BEC3D3" fill-opacity="0.42"/>
<circle cx="126.5" cy="252.5" r="1.5" fill="#BEC3D3" fill-opacity="0.42"/>
<circle cx="126.5" cy="301.5" r="1.5" fill="#BEC3D3" fill-opacity="0.42"/>
<circle cx="126.5" cy="349.5" r="1.5" fill="#BEC3D3" fill-opacity="0.42"/>
<circle cx="5.5" cy="228.5" r="1.5" fill="#BEC3D3" fill-opacity="0.42"/>
<circle cx="5.5" cy="276.5" r="1.5" fill="#BEC3D3" fill-opacity="0.42"/>
<circle cx="5.5" cy="325.5" r="1.5" fill="#BEC3D3" fill-opacity="0.42"/>
<circle cx="5.5" cy="252.5" r="1.5" fill="#BEC3D3" fill-opacity="0.42"/>
<circle cx="5.5" cy="301.5" r="1.5" fill="#BEC3D3" fill-opacity="0.42"/>
<circle cx="5.5" cy="349.5" r="1.5" fill="#BEC3D3" fill-opacity="0.42"/>
<circle cx="150.5" cy="228.5" r="1.5" fill="#BEC3D3" fill-opacity="0.42"/>
<circle cx="150.5" cy="276.5" r="1.5" fill="#BEC3D3" fill-opacity="0.42"/>
<circle cx="150.5" cy="325.5" r="1.5" fill="#BEC3D3" fill-opacity="0.42"/>
<circle cx="150.5" cy="252.5" r="1.5" fill="#BEC3D3" fill-opacity="0.42"/>
<circle cx="150.5" cy="301.5" r="1.5" fill="#BEC3D3" fill-opacity="0.42"/>
<circle cx="150.5" cy="349.5" r="1.5" fill="#BEC3D3" fill-opacity="0.42"/>
<circle cx="29.5" cy="228.5" r="1.5" fill="#BEC3D3" fill-opacity="0.42"/>
<circle cx="29.5" cy="276.5" r="1.5" fill="#BEC3D3" fill-opacity="0.42"/>
<circle cx="29.5" cy="325.5" r="1.5" fill="#BEC3D3" fill-opacity="0.42"/>
<circle cx="29.5" cy="252.5" r="1.5" fill="#BEC3D3" fill-opacity="0.42"/>
<circle cx="29.5" cy="301.5" r="1.5" fill="#BEC3D3" fill-opacity="0.42"/>
<circle cx="29.5" cy="349.5" r="1.5" fill="#BEC3D3" fill-opacity="0.42"/>
<circle cx="174.5" cy="228.5" r="1.5" fill="#BEC3D3" fill-opacity="0.42"/>
<circle cx="174.5" cy="276.5" r="1.5" fill="#BEC3D3" fill-opacity="0.42"/>
<circle cx="174.5" cy="325.5" r="1.5" fill="#BEC3D3" fill-opacity="0.42"/>
<circle cx="174.5" cy="252.5" r="1.5" fill="#BEC3D3" fill-opacity="0.42"/>
<circle cx="174.5" cy="301.5" r="1.5" fill="#BEC3D3" fill-opacity="0.42"/>
<circle cx="174.5" cy="349.5" r="1.5" fill="#BEC3D3" fill-opacity="0.42"/>
<circle cx="53.5" cy="228.5" r="1.5" fill="#BEC3D3" fill-opacity="0.42"/>
<circle cx="53.5" cy="276.5" r="1.5" fill="#BEC3D3" fill-opacity="0.42"/>
<circle cx="53.5" cy="325.5" r="1.5" fill="#BEC3D3" fill-opacity="0.42"/>
<circle cx="53.5" cy="252.5" r="1.5" fill="#BEC3D3" fill-opacity="0.42"/>
<circle cx="53.5" cy="301.5" r="1.5" fill="#BEC3D3" fill-opacity="0.42"/>
<circle cx="53.5" cy="349.5" r="1.5" fill="#BEC3D3" fill-opacity="0.42"/>
<circle cx="199.5" cy="228.5" r="1.5" fill="#BEC3D3" fill-opacity="0.42"/>
<circle cx="199.5" cy="276.5" r="1.5" fill="#BEC3D3" fill-opacity="0.42"/>
<circle cx="199.5" cy="325.5" r="1.5" fill="#BEC3D3" fill-opacity="0.42"/>
<circle cx="199.5" cy="252.5" r="1.5" fill="#BEC3D3" fill-opacity="0.42"/>
<circle cx="199.5" cy="301.5" r="1.5" fill="#BEC3D3" fill-opacity="0.42"/>
<circle cx="199.5" cy="349.5" r="1.5" fill="#BEC3D3" fill-opacity="0.42"/>
<circle cx="78.5" cy="228.5" r="1.5" fill="#BEC3D3" fill-opacity="0.42"/>
<circle cx="78.5" cy="276.5" r="1.5" fill="#BEC3D3" fill-opacity="0.42"/>
<circle cx="78.5" cy="325.5" r="1.5" fill="#BEC3D3" fill-opacity="0.42"/>
<circle cx="78.5" cy="252.5" r="1.5" fill="#BEC3D3" fill-opacity="0.42"/>
<circle cx="78.5" cy="301.5" r="1.5" fill="#BEC3D3" fill-opacity="0.42"/>
<circle cx="78.5" cy="349.5" r="1.5" fill="#BEC3D3" fill-opacity="0.42"/>
<circle cx="223.5" cy="228.5" r="1.5" fill="#BEC3D3" fill-opacity="0.42"/>
<circle cx="223.5" cy="276.5" r="1.5" fill="#BEC3D3" fill-opacity="0.42"/>
<circle cx="223.5" cy="325.5" r="1.5" fill="#BEC3D3" fill-opacity="0.42"/>
<circle cx="223.5" cy="252.5" r="1.5" fill="#BEC3D3" fill-opacity="0.42"/>
<circle cx="223.5" cy="301.5" r="1.5" fill="#BEC3D3" fill-opacity="0.42"/>
<circle cx="223.5" cy="349.5" r="1.5" fill="#BEC3D3" fill-opacity="0.42"/>
<circle cx="102.5" cy="228.5" r="1.5" fill="#BEC3D3" fill-opacity="0.42"/>
<circle cx="102.5" cy="276.5" r="1.5" fill="#BEC3D3" fill-opacity="0.42"/>
<circle cx="102.5" cy="325.5" r="1.5" fill="#BEC3D3" fill-opacity="0.42"/>
<circle cx="102.5" cy="252.5" r="1.5" fill="#BEC3D3" fill-opacity="0.42"/>
<circle cx="102.5" cy="301.5" r="1.5" fill="#BEC3D3" fill-opacity="0.42"/>
<circle cx="102.5" cy="349.5" r="1.5" fill="#BEC3D3" fill-opacity="0.42"/>
</g>
<circle cx="368.5" cy="33.5" r="1.5" fill="#BEC3D3" fill-opacity="0.42"/>
<circle cx="368.5" cy="82.5" r="1.5" fill="#BEC3D3" fill-opacity="0.42"/>
<circle cx="368.5" cy="130.5" r="1.5" fill="#BEC3D3" fill-opacity="0.42"/>
<circle cx="368.5" cy="179.5" r="1.5" fill="#BEC3D3" fill-opacity="0.42"/>
<circle cx="368.5" cy="9.5" r="1.5" fill="#BEC3D3" fill-opacity="0.42"/>
<circle cx="368.5" cy="58.5" r="1.5" fill="#BEC3D3" fill-opacity="0.42"/>
<circle cx="368.5" cy="106.5" r="1.5" fill="#BEC3D3" fill-opacity="0.42"/>
<circle cx="368.5" cy="154.5" r="1.5" fill="#BEC3D3" fill-opacity="0.42"/>
<circle cx="368.5" cy="203.5" r="1.5" fill="#BEC3D3" fill-opacity="0.42"/>
<circle cx="247.5" cy="33.5" r="1.5" fill="#BEC3D3" fill-opacity="0.42"/>
<circle cx="247.5" cy="82.5" r="1.5" fill="#BEC3D3" fill-opacity="0.42"/>
<circle cx="247.5" cy="130.5" r="1.5" fill="#BEC3D3" fill-opacity="0.42"/>
<circle cx="247.5" cy="179.5" r="1.5" fill="#BEC3D3" fill-opacity="0.42"/>
<circle cx="247.5" cy="9.5" r="1.5" fill="#BEC3D3" fill-opacity="0.42"/>
<circle cx="247.5" cy="58.5" r="1.5" fill="#BEC3D3" fill-opacity="0.42"/>
<circle cx="247.5" cy="106.5" r="1.5" fill="#BEC3D3" fill-opacity="0.42"/>
<circle cx="247.5" cy="154.5" r="1.5" fill="#BEC3D3" fill-opacity="0.42"/>
<circle cx="247.5" cy="203.5" r="1.5" fill="#BEC3D3" fill-opacity="0.42"/>
<circle cx="392.5" cy="33.5" r="1.5" fill="#BEC3D3" fill-opacity="0.42"/>
<circle cx="392.5" cy="82.5" r="1.5" fill="#BEC3D3" fill-opacity="0.42"/>
<circle cx="392.5" cy="130.5" r="1.5" fill="#BEC3D3" fill-opacity="0.42"/>
<circle cx="392.5" cy="179.5" r="1.5" fill="#BEC3D3" fill-opacity="0.42"/>
<circle cx="392.5" cy="9.5" r="1.5" fill="#BEC3D3" fill-opacity="0.42"/>
<circle cx="392.5" cy="58.5" r="1.5" fill="#BEC3D3" fill-opacity="0.42"/>
<circle cx="392.5" cy="106.5" r="1.5" fill="#BEC3D3" fill-opacity="0.42"/>
<circle cx="392.5" cy="154.5" r="1.5" fill="#BEC3D3" fill-opacity="0.42"/>
<circle cx="392.5" cy="203.5" r="1.5" fill="#BEC3D3" fill-opacity="0.42"/>
<circle cx="271.5" cy="33.5" r="1.5" fill="#BEC3D3" fill-opacity="0.42"/>
<circle cx="271.5" cy="82.5" r="1.5" fill="#BEC3D3" fill-opacity="0.42"/>
<circle cx="271.5" cy="130.5" r="1.5" fill="#BEC3D3" fill-opacity="0.42"/>
<circle cx="271.5" cy="179.5" r="1.5" fill="#BEC3D3" fill-opacity="0.42"/>
<circle cx="271.5" cy="9.5" r="1.5" fill="#BEC3D3" fill-opacity="0.42"/>
<circle cx="271.5" cy="58.5" r="1.5" fill="#BEC3D3" fill-opacity="0.42"/>
<circle cx="271.5" cy="106.5" r="1.5" fill="#BEC3D3" fill-opacity="0.42"/>
<circle cx="271.5" cy="154.5" r="1.5" fill="#BEC3D3" fill-opacity="0.42"/>
<circle cx="271.5" cy="203.5" r="1.5" fill="#BEC3D3" fill-opacity="0.42"/>
<circle cx="416.5" cy="33.5" r="1.5" fill="#BEC3D3" fill-opacity="0.42"/>
<circle cx="416.5" cy="82.5" r="1.5" fill="#BEC3D3" fill-opacity="0.42"/>
<circle cx="416.5" cy="130.5" r="1.5" fill="#BEC3D3" fill-opacity="0.42"/>
<circle cx="416.5" cy="179.5" r="1.5" fill="#BEC3D3" fill-opacity="0.42"/>
<circle cx="416.5" cy="9.5" r="1.5" fill="#BEC3D3" fill-opacity="0.42"/>
<circle cx="416.5" cy="58.5" r="1.5" fill="#BEC3D3" fill-opacity="0.42"/>
<circle cx="416.5" cy="106.5" r="1.5" fill="#BEC3D3" fill-opacity="0.42"/>
<circle cx="416.5" cy="154.5" r="1.5" fill="#BEC3D3" fill-opacity="0.42"/>
<circle cx="416.5" cy="203.5" r="1.5" fill="#BEC3D3" fill-opacity="0.42"/>
<circle cx="295.5" cy="33.5" r="1.5" fill="#BEC3D3" fill-opacity="0.42"/>
<circle cx="295.5" cy="82.5" r="1.5" fill="#BEC3D3" fill-opacity="0.42"/>
<circle cx="295.5" cy="130.5" r="1.5" fill="#BEC3D3" fill-opacity="0.42"/>
<circle cx="295.5" cy="179.5" r="1.5" fill="#BEC3D3" fill-opacity="0.42"/>
<circle cx="295.5" cy="9.5" r="1.5" fill="#BEC3D3" fill-opacity="0.42"/>
<circle cx="295.5" cy="58.5" r="1.5" fill="#BEC3D3" fill-opacity="0.42"/>
<circle cx="295.5" cy="106.5" r="1.5" fill="#BEC3D3" fill-opacity="0.42"/>
<circle cx="295.5" cy="154.5" r="1.5" fill="#BEC3D3" fill-opacity="0.42"/>
<circle cx="295.5" cy="203.5" r="1.5" fill="#BEC3D3" fill-opacity="0.42"/>
<circle cx="441.5" cy="33.5" r="1.5" fill="#BEC3D3" fill-opacity="0.42"/>
<circle cx="441.5" cy="82.5" r="1.5" fill="#BEC3D3" fill-opacity="0.42"/>
<circle cx="441.5" cy="130.5" r="1.5" fill="#BEC3D3" fill-opacity="0.42"/>
<circle cx="441.5" cy="179.5" r="1.5" fill="#BEC3D3" fill-opacity="0.42"/>
<circle cx="441.5" cy="9.5" r="1.5" fill="#BEC3D3" fill-opacity="0.42"/>
<circle cx="441.5" cy="58.5" r="1.5" fill="#BEC3D3" fill-opacity="0.42"/>
<circle cx="441.5" cy="106.5" r="1.5" fill="#BEC3D3" fill-opacity="0.42"/>
<circle cx="441.5" cy="154.5" r="1.5" fill="#BEC3D3" fill-opacity="0.42"/>
<circle cx="441.5" cy="203.5" r="1.5" fill="#BEC3D3" fill-opacity="0.42"/>
<circle cx="320.5" cy="33.5" r="1.5" fill="#BEC3D3" fill-opacity="0.42"/>
<circle cx="320.5" cy="82.5" r="1.5" fill="#BEC3D3" fill-opacity="0.42"/>
<circle cx="320.5" cy="130.5" r="1.5" fill="#BEC3D3" fill-opacity="0.42"/>
<circle cx="320.5" cy="179.5" r="1.5" fill="#BEC3D3" fill-opacity="0.42"/>
<circle cx="320.5" cy="9.5" r="1.5" fill="#BEC3D3" fill-opacity="0.42"/>
<circle cx="320.5" cy="58.5" r="1.5" fill="#BEC3D3" fill-opacity="0.42"/>
<circle cx="320.5" cy="106.5" r="1.5" fill="#BEC3D3" fill-opacity="0.42"/>
<circle cx="320.5" cy="154.5" r="1.5" fill="#BEC3D3" fill-opacity="0.42"/>
<circle cx="320.5" cy="203.5" r="1.5" fill="#BEC3D3" fill-opacity="0.42"/>
<circle cx="465.5" cy="33.5" r="1.5" fill="#BEC3D3" fill-opacity="0.42"/>
<circle cx="465.5" cy="82.5" r="1.5" fill="#BEC3D3" fill-opacity="0.42"/>
<circle cx="465.5" cy="130.5" r="1.5" fill="#BEC3D3" fill-opacity="0.42"/>
<circle cx="465.5" cy="179.5" r="1.5" fill="#BEC3D3" fill-opacity="0.42"/>
<circle cx="465.5" cy="9.5" r="1.5" fill="#BEC3D3" fill-opacity="0.42"/>
<circle cx="465.5" cy="58.5" r="1.5" fill="#BEC3D3" fill-opacity="0.42"/>
<circle cx="465.5" cy="106.5" r="1.5" fill="#BEC3D3" fill-opacity="0.42"/>
<circle cx="465.5" cy="154.5" r="1.5" fill="#BEC3D3" fill-opacity="0.42"/>
<circle cx="465.5" cy="203.5" r="1.5" fill="#BEC3D3" fill-opacity="0.42"/>
<circle cx="344.5" cy="33.5" r="1.5" fill="#BEC3D3" fill-opacity="0.42"/>
<circle cx="344.5" cy="82.5" r="1.5" fill="#BEC3D3" fill-opacity="0.42"/>
<circle cx="344.5" cy="130.5" r="1.5" fill="#BEC3D3" fill-opacity="0.42"/>
<circle cx="344.5" cy="179.5" r="1.5" fill="#BEC3D3" fill-opacity="0.42"/>
<circle cx="344.5" cy="9.5" r="1.5" fill="#BEC3D3" fill-opacity="0.42"/>
<circle cx="344.5" cy="58.5" r="1.5" fill="#BEC3D3" fill-opacity="0.42"/>
<circle cx="344.5" cy="106.5" r="1.5" fill="#BEC3D3" fill-opacity="0.42"/>
<circle cx="344.5" cy="154.5" r="1.5" fill="#BEC3D3" fill-opacity="0.42"/>
<circle cx="344.5" cy="203.5" r="1.5" fill="#BEC3D3" fill-opacity="0.42"/>
<circle cx="368.5" cy="228.5" r="1.5" fill="#BEC3D3" fill-opacity="0.42"/>
<circle cx="368.5" cy="276.5" r="1.5" fill="#BEC3D3" fill-opacity="0.42"/>
<circle cx="368.5" cy="325.5" r="1.5" fill="#BEC3D3" fill-opacity="0.42"/>
<circle cx="368.5" cy="373.5" r="1.5" fill="#BEC3D3" fill-opacity="0.42"/>
<circle cx="368.5" cy="252.5" r="1.5" fill="#BEC3D3" fill-opacity="0.42"/>
<circle cx="368.5" cy="301.5" r="1.5" fill="#BEC3D3" fill-opacity="0.42"/>
<circle cx="368.5" cy="349.5" r="1.5" fill="#BEC3D3" fill-opacity="0.42"/>
<circle cx="247.5" cy="228.5" r="1.5" fill="#BEC3D3" fill-opacity="0.42"/>
<circle cx="247.5" cy="276.5" r="1.5" fill="#BEC3D3" fill-opacity="0.42"/>
<circle cx="247.5" cy="325.5" r="1.5" fill="#BEC3D3" fill-opacity="0.42"/>
<circle cx="247.5" cy="373.5" r="1.5" fill="#BEC3D3" fill-opacity="0.42"/>
<circle cx="247.5" cy="252.5" r="1.5" fill="#BEC3D3" fill-opacity="0.42"/>
<circle cx="247.5" cy="301.5" r="1.5" fill="#BEC3D3" fill-opacity="0.42"/>
<circle cx="247.5" cy="349.5" r="1.5" fill="#BEC3D3" fill-opacity="0.42"/>
<circle cx="392.5" cy="228.5" r="1.5" fill="#BEC3D3" fill-opacity="0.42"/>
<circle cx="392.5" cy="276.5" r="1.5" fill="#BEC3D3" fill-opacity="0.42"/>
<circle cx="392.5" cy="325.5" r="1.5" fill="#BEC3D3" fill-opacity="0.42"/>
<circle cx="392.5" cy="373.5" r="1.5" fill="#BEC3D3" fill-opacity="0.42"/>
<circle cx="392.5" cy="252.5" r="1.5" fill="#BEC3D3" fill-opacity="0.42"/>
<circle cx="392.5" cy="301.5" r="1.5" fill="#BEC3D3" fill-opacity="0.42"/>
<circle cx="392.5" cy="349.5" r="1.5" fill="#BEC3D3" fill-opacity="0.42"/>
<circle cx="271.5" cy="228.5" r="1.5" fill="#BEC3D3" fill-opacity="0.42"/>
<circle cx="271.5" cy="276.5" r="1.5" fill="#BEC3D3" fill-opacity="0.42"/>
<circle cx="271.5" cy="325.5" r="1.5" fill="#BEC3D3" fill-opacity="0.42"/>
<circle cx="271.5" cy="373.5" r="1.5" fill="#BEC3D3" fill-opacity="0.42"/>
<circle cx="271.5" cy="252.5" r="1.5" fill="#BEC3D3" fill-opacity="0.42"/>
<circle cx="271.5" cy="301.5" r="1.5" fill="#BEC3D3" fill-opacity="0.42"/>
<circle cx="271.5" cy="349.5" r="1.5" fill="#BEC3D3" fill-opacity="0.42"/>
<circle cx="416.5" cy="228.5" r="1.5" fill="#BEC3D3" fill-opacity="0.42"/>
<circle cx="416.5" cy="276.5" r="1.5" fill="#BEC3D3" fill-opacity="0.42"/>
<circle cx="416.5" cy="325.5" r="1.5" fill="#BEC3D3" fill-opacity="0.42"/>
<circle cx="416.5" cy="373.5" r="1.5" fill="#BEC3D3" fill-opacity="0.42"/>
<circle cx="416.5" cy="252.5" r="1.5" fill="#BEC3D3" fill-opacity="0.42"/>
<circle cx="416.5" cy="301.5" r="1.5" fill="#BEC3D3" fill-opacity="0.42"/>
<circle cx="416.5" cy="349.5" r="1.5" fill="#BEC3D3" fill-opacity="0.42"/>
<circle cx="295.5" cy="228.5" r="1.5" fill="#BEC3D3" fill-opacity="0.42"/>
<circle cx="295.5" cy="276.5" r="1.5" fill="#BEC3D3" fill-opacity="0.42"/>
<circle cx="295.5" cy="325.5" r="1.5" fill="#BEC3D3" fill-opacity="0.42"/>
<circle cx="295.5" cy="373.5" r="1.5" fill="#BEC3D3" fill-opacity="0.42"/>
<circle cx="295.5" cy="252.5" r="1.5" fill="#BEC3D3" fill-opacity="0.42"/>
<circle cx="295.5" cy="301.5" r="1.5" fill="#BEC3D3" fill-opacity="0.42"/>
<circle cx="295.5" cy="349.5" r="1.5" fill="#BEC3D3" fill-opacity="0.42"/>
<circle cx="441.5" cy="228.5" r="1.5" fill="#BEC3D3" fill-opacity="0.42"/>
<circle cx="441.5" cy="276.5" r="1.5" fill="#BEC3D3" fill-opacity="0.42"/>
<circle cx="441.5" cy="325.5" r="1.5" fill="#BEC3D3" fill-opacity="0.42"/>
<circle cx="441.5" cy="373.5" r="1.5" fill="#BEC3D3" fill-opacity="0.42"/>
<circle cx="441.5" cy="252.5" r="1.5" fill="#BEC3D3" fill-opacity="0.42"/>
<circle cx="441.5" cy="301.5" r="1.5" fill="#BEC3D3" fill-opacity="0.42"/>
<circle cx="441.5" cy="349.5" r="1.5" fill="#BEC3D3" fill-opacity="0.42"/>
<circle cx="320.5" cy="228.5" r="1.5" fill="#BEC3D3" fill-opacity="0.42"/>
<circle cx="320.5" cy="276.5" r="1.5" fill="#BEC3D3" fill-opacity="0.42"/>
<circle cx="320.5" cy="325.5" r="1.5" fill="#BEC3D3" fill-opacity="0.42"/>
<circle cx="320.5" cy="373.5" r="1.5" fill="#BEC3D3" fill-opacity="0.42"/>
<circle cx="320.5" cy="252.5" r="1.5" fill="#BEC3D3" fill-opacity="0.42"/>
<circle cx="320.5" cy="301.5" r="1.5" fill="#BEC3D3" fill-opacity="0.42"/>
<circle cx="320.5" cy="349.5" r="1.5" fill="#BEC3D3" fill-opacity="0.42"/>
<circle cx="465.5" cy="228.5" r="1.5" fill="#BEC3D3" fill-opacity="0.42"/>
<circle cx="465.5" cy="276.5" r="1.5" fill="#BEC3D3" fill-opacity="0.42"/>
<circle cx="465.5" cy="325.5" r="1.5" fill="#BEC3D3" fill-opacity="0.42"/>
<circle cx="465.5" cy="373.5" r="1.5" fill="#BEC3D3" fill-opacity="0.42"/>
<circle cx="465.5" cy="252.5" r="1.5" fill="#BEC3D3" fill-opacity="0.42"/>
<circle cx="465.5" cy="301.5" r="1.5" fill="#BEC3D3" fill-opacity="0.42"/>
<circle cx="465.5" cy="349.5" r="1.5" fill="#BEC3D3" fill-opacity="0.42"/>
<circle cx="344.5" cy="228.5" r="1.5" fill="#BEC3D3" fill-opacity="0.42"/>
<circle cx="344.5" cy="276.5" r="1.5" fill="#BEC3D3" fill-opacity="0.42"/>
<circle cx="344.5" cy="325.5" r="1.5" fill="#BEC3D3" fill-opacity="0.42"/>
<circle cx="344.5" cy="373.5" r="1.5" fill="#BEC3D3" fill-opacity="0.42"/>
<circle cx="344.5" cy="252.5" r="1.5" fill="#BEC3D3" fill-opacity="0.42"/>
<circle cx="344.5" cy="301.5" r="1.5" fill="#BEC3D3" fill-opacity="0.42"/>
<circle cx="344.5" cy="349.5" r="1.5" fill="#BEC3D3" fill-opacity="0.42"/>
<g clip-path="url(#clip5_1759_128253)">
<circle cx="610.5" cy="82.5" r="1.5" fill="#BEC3D3" fill-opacity="0.42"/>
<circle cx="610.5" cy="130.5" r="1.5" fill="#BEC3D3" fill-opacity="0.42"/>
<circle cx="610.5" cy="179.5" r="1.5" fill="#BEC3D3" fill-opacity="0.42"/>
<circle cx="610.5" cy="106.5" r="1.5" fill="#BEC3D3" fill-opacity="0.42"/>
<circle cx="610.5" cy="154.5" r="1.5" fill="#BEC3D3" fill-opacity="0.42"/>
<circle cx="610.5" cy="203.5" r="1.5" fill="#BEC3D3" fill-opacity="0.42"/>
<circle cx="489.5" cy="82.5" r="1.5" fill="#BEC3D3" fill-opacity="0.42"/>
<circle cx="489.5" cy="130.5" r="1.5" fill="#BEC3D3" fill-opacity="0.42"/>
<circle cx="489.5" cy="179.5" r="1.5" fill="#BEC3D3" fill-opacity="0.42"/>
<circle cx="489.5" cy="106.5" r="1.5" fill="#BEC3D3" fill-opacity="0.42"/>
<circle cx="489.5" cy="154.5" r="1.5" fill="#BEC3D3" fill-opacity="0.42"/>
<circle cx="489.5" cy="203.5" r="1.5" fill="#BEC3D3" fill-opacity="0.42"/>
<circle cx="634.5" cy="82.5" r="1.5" fill="#BEC3D3" fill-opacity="0.42"/>
<circle cx="634.5" cy="130.5" r="1.5" fill="#BEC3D3" fill-opacity="0.42"/>
<circle cx="634.5" cy="179.5" r="1.5" fill="#BEC3D3" fill-opacity="0.42"/>
<circle cx="634.5" cy="106.5" r="1.5" fill="#BEC3D3" fill-opacity="0.42"/>
<circle cx="634.5" cy="154.5" r="1.5" fill="#BEC3D3" fill-opacity="0.42"/>
<circle cx="634.5" cy="203.5" r="1.5" fill="#BEC3D3" fill-opacity="0.42"/>
<circle cx="513.5" cy="82.5" r="1.5" fill="#BEC3D3" fill-opacity="0.42"/>
<circle cx="513.5" cy="130.5" r="1.5" fill="#BEC3D3" fill-opacity="0.42"/>
<circle cx="513.5" cy="179.5" r="1.5" fill="#BEC3D3" fill-opacity="0.42"/>
<circle cx="513.5" cy="106.5" r="1.5" fill="#BEC3D3" fill-opacity="0.42"/>
<circle cx="513.5" cy="154.5" r="1.5" fill="#BEC3D3" fill-opacity="0.42"/>
<circle cx="513.5" cy="203.5" r="1.5" fill="#BEC3D3" fill-opacity="0.42"/>
<circle cx="658.5" cy="82.5" r="1.5" fill="#BEC3D3" fill-opacity="0.42"/>
<circle cx="658.5" cy="130.5" r="1.5" fill="#BEC3D3" fill-opacity="0.42"/>
<circle cx="658.5" cy="179.5" r="1.5" fill="#BEC3D3" fill-opacity="0.42"/>
<circle cx="658.5" cy="106.5" r="1.5" fill="#BEC3D3" fill-opacity="0.42"/>
<circle cx="658.5" cy="154.5" r="1.5" fill="#BEC3D3" fill-opacity="0.42"/>
<circle cx="658.5" cy="203.5" r="1.5" fill="#BEC3D3" fill-opacity="0.42"/>
<circle cx="537.5" cy="82.5" r="1.5" fill="#BEC3D3" fill-opacity="0.42"/>
<circle cx="537.5" cy="130.5" r="1.5" fill="#BEC3D3" fill-opacity="0.42"/>
<circle cx="537.5" cy="179.5" r="1.5" fill="#BEC3D3" fill-opacity="0.42"/>
<circle cx="537.5" cy="106.5" r="1.5" fill="#BEC3D3" fill-opacity="0.42"/>
<circle cx="537.5" cy="154.5" r="1.5" fill="#BEC3D3" fill-opacity="0.42"/>
<circle cx="537.5" cy="203.5" r="1.5" fill="#BEC3D3" fill-opacity="0.42"/>
<circle cx="683.5" cy="82.5" r="1.5" fill="#BEC3D3" fill-opacity="0.42"/>
<circle cx="683.5" cy="130.5" r="1.5" fill="#BEC3D3" fill-opacity="0.42"/>
<circle cx="683.5" cy="179.5" r="1.5" fill="#BEC3D3" fill-opacity="0.42"/>
<circle cx="683.5" cy="106.5" r="1.5" fill="#BEC3D3" fill-opacity="0.42"/>
<circle cx="683.5" cy="154.5" r="1.5" fill="#BEC3D3" fill-opacity="0.42"/>
<circle cx="683.5" cy="203.5" r="1.5" fill="#BEC3D3" fill-opacity="0.42"/>
<circle cx="562.5" cy="82.5" r="1.5" fill="#BEC3D3" fill-opacity="0.42"/>
<circle cx="562.5" cy="130.5" r="1.5" fill="#BEC3D3" fill-opacity="0.42"/>
<circle cx="562.5" cy="179.5" r="1.5" fill="#BEC3D3" fill-opacity="0.42"/>
<circle cx="562.5" cy="106.5" r="1.5" fill="#BEC3D3" fill-opacity="0.42"/>
<circle cx="562.5" cy="154.5" r="1.5" fill="#BEC3D3" fill-opacity="0.42"/>
<circle cx="562.5" cy="203.5" r="1.5" fill="#BEC3D3" fill-opacity="0.42"/>
<circle cx="707.5" cy="82.5" r="1.5" fill="#BEC3D3" fill-opacity="0.42"/>
<circle cx="707.5" cy="130.5" r="1.5" fill="#BEC3D3" fill-opacity="0.42"/>
<circle cx="707.5" cy="179.5" r="1.5" fill="#BEC3D3" fill-opacity="0.42"/>
<circle cx="707.5" cy="106.5" r="1.5" fill="#BEC3D3" fill-opacity="0.42"/>
<circle cx="707.5" cy="154.5" r="1.5" fill="#BEC3D3" fill-opacity="0.42"/>
<circle cx="707.5" cy="203.5" r="1.5" fill="#BEC3D3" fill-opacity="0.42"/>
<circle cx="586.5" cy="82.5" r="1.5" fill="#BEC3D3" fill-opacity="0.42"/>
<circle cx="586.5" cy="130.5" r="1.5" fill="#BEC3D3" fill-opacity="0.42"/>
<circle cx="586.5" cy="179.5" r="1.5" fill="#BEC3D3" fill-opacity="0.42"/>
<circle cx="586.5" cy="106.5" r="1.5" fill="#BEC3D3" fill-opacity="0.42"/>
<circle cx="586.5" cy="154.5" r="1.5" fill="#BEC3D3" fill-opacity="0.42"/>
<circle cx="586.5" cy="203.5" r="1.5" fill="#BEC3D3" fill-opacity="0.42"/>
</g>
<circle cx="610.5" cy="228.5" r="1.5" fill="#BEC3D3" fill-opacity="0.42"/>
<circle cx="610.5" cy="276.5" r="1.5" fill="#BEC3D3" fill-opacity="0.42"/>
<circle cx="610.5" cy="325.5" r="1.5" fill="#BEC3D3" fill-opacity="0.42"/>
<circle cx="610.5" cy="373.5" r="1.5" fill="#BEC3D3" fill-opacity="0.42"/>
<circle cx="610.5" cy="252.5" r="1.5" fill="#BEC3D3" fill-opacity="0.42"/>
<circle cx="610.5" cy="301.5" r="1.5" fill="#BEC3D3" fill-opacity="0.42"/>
<circle cx="610.5" cy="349.5" r="1.5" fill="#BEC3D3" fill-opacity="0.42"/>
<circle cx="489.5" cy="228.5" r="1.5" fill="#BEC3D3" fill-opacity="0.42"/>
<circle cx="489.5" cy="276.5" r="1.5" fill="#BEC3D3" fill-opacity="0.42"/>
<circle cx="489.5" cy="325.5" r="1.5" fill="#BEC3D3" fill-opacity="0.42"/>
<circle cx="489.5" cy="373.5" r="1.5" fill="#BEC3D3" fill-opacity="0.42"/>
<circle cx="489.5" cy="252.5" r="1.5" fill="#BEC3D3" fill-opacity="0.42"/>
<circle cx="489.5" cy="301.5" r="1.5" fill="#BEC3D3" fill-opacity="0.42"/>
<circle cx="489.5" cy="349.5" r="1.5" fill="#BEC3D3" fill-opacity="0.42"/>
<circle cx="634.5" cy="228.5" r="1.5" fill="#BEC3D3" fill-opacity="0.42"/>
<circle cx="634.5" cy="276.5" r="1.5" fill="#BEC3D3" fill-opacity="0.42"/>
<circle cx="634.5" cy="325.5" r="1.5" fill="#BEC3D3" fill-opacity="0.42"/>
<circle cx="634.5" cy="373.5" r="1.5" fill="#BEC3D3" fill-opacity="0.42"/>
<circle cx="634.5" cy="252.5" r="1.5" fill="#BEC3D3" fill-opacity="0.42"/>
<circle cx="634.5" cy="301.5" r="1.5" fill="#BEC3D3" fill-opacity="0.42"/>
<circle cx="634.5" cy="349.5" r="1.5" fill="#BEC3D3" fill-opacity="0.42"/>
<circle cx="513.5" cy="228.5" r="1.5" fill="#BEC3D3" fill-opacity="0.42"/>
<circle cx="513.5" cy="276.5" r="1.5" fill="#BEC3D3" fill-opacity="0.42"/>
<circle cx="513.5" cy="325.5" r="1.5" fill="#BEC3D3" fill-opacity="0.42"/>
<circle cx="513.5" cy="373.5" r="1.5" fill="#BEC3D3" fill-opacity="0.42"/>
<circle cx="513.5" cy="252.5" r="1.5" fill="#BEC3D3" fill-opacity="0.42"/>
<circle cx="513.5" cy="301.5" r="1.5" fill="#BEC3D3" fill-opacity="0.42"/>
<circle cx="513.5" cy="349.5" r="1.5" fill="#BEC3D3" fill-opacity="0.42"/>
<circle cx="658.5" cy="228.5" r="1.5" fill="#BEC3D3" fill-opacity="0.42"/>
<circle cx="658.5" cy="276.5" r="1.5" fill="#BEC3D3" fill-opacity="0.42"/>
<circle cx="658.5" cy="325.5" r="1.5" fill="#BEC3D3" fill-opacity="0.42"/>
<circle cx="658.5" cy="373.5" r="1.5" fill="#BEC3D3" fill-opacity="0.42"/>
<circle cx="658.5" cy="252.5" r="1.5" fill="#BEC3D3" fill-opacity="0.42"/>
<circle cx="658.5" cy="301.5" r="1.5" fill="#BEC3D3" fill-opacity="0.42"/>
<circle cx="658.5" cy="349.5" r="1.5" fill="#BEC3D3" fill-opacity="0.42"/>
<circle cx="537.5" cy="228.5" r="1.5" fill="#BEC3D3" fill-opacity="0.42"/>
<circle cx="537.5" cy="276.5" r="1.5" fill="#BEC3D3" fill-opacity="0.42"/>
<circle cx="537.5" cy="325.5" r="1.5" fill="#BEC3D3" fill-opacity="0.42"/>
<circle cx="537.5" cy="373.5" r="1.5" fill="#BEC3D3" fill-opacity="0.42"/>
<circle cx="537.5" cy="252.5" r="1.5" fill="#BEC3D3" fill-opacity="0.42"/>
<circle cx="537.5" cy="301.5" r="1.5" fill="#BEC3D3" fill-opacity="0.42"/>
<circle cx="537.5" cy="349.5" r="1.5" fill="#BEC3D3" fill-opacity="0.42"/>
<circle cx="683.5" cy="228.5" r="1.5" fill="#BEC3D3" fill-opacity="0.42"/>
<circle cx="683.5" cy="276.5" r="1.5" fill="#BEC3D3" fill-opacity="0.42"/>
<circle cx="683.5" cy="325.5" r="1.5" fill="#BEC3D3" fill-opacity="0.42"/>
<circle cx="683.5" cy="373.5" r="1.5" fill="#BEC3D3" fill-opacity="0.42"/>
<circle cx="683.5" cy="252.5" r="1.5" fill="#BEC3D3" fill-opacity="0.42"/>
<circle cx="683.5" cy="301.5" r="1.5" fill="#BEC3D3" fill-opacity="0.42"/>
<circle cx="683.5" cy="349.5" r="1.5" fill="#BEC3D3" fill-opacity="0.42"/>
<circle cx="562.5" cy="228.5" r="1.5" fill="#BEC3D3" fill-opacity="0.42"/>
<circle cx="562.5" cy="276.5" r="1.5" fill="#BEC3D3" fill-opacity="0.42"/>
<circle cx="562.5" cy="325.5" r="1.5" fill="#BEC3D3" fill-opacity="0.42"/>
<circle cx="562.5" cy="373.5" r="1.5" fill="#BEC3D3" fill-opacity="0.42"/>
<circle cx="562.5" cy="252.5" r="1.5" fill="#BEC3D3" fill-opacity="0.42"/>
<circle cx="562.5" cy="301.5" r="1.5" fill="#BEC3D3" fill-opacity="0.42"/>
<circle cx="562.5" cy="349.5" r="1.5" fill="#BEC3D3" fill-opacity="0.42"/>
<circle cx="707.5" cy="228.5" r="1.5" fill="#BEC3D3" fill-opacity="0.42"/>
<circle cx="707.5" cy="276.5" r="1.5" fill="#BEC3D3" fill-opacity="0.42"/>
<circle cx="707.5" cy="325.5" r="1.5" fill="#BEC3D3" fill-opacity="0.42"/>
<circle cx="707.5" cy="373.5" r="1.5" fill="#BEC3D3" fill-opacity="0.42"/>
<circle cx="707.5" cy="252.5" r="1.5" fill="#BEC3D3" fill-opacity="0.42"/>
<circle cx="707.5" cy="301.5" r="1.5" fill="#BEC3D3" fill-opacity="0.42"/>
<circle cx="707.5" cy="349.5" r="1.5" fill="#BEC3D3" fill-opacity="0.42"/>
<circle cx="586.5" cy="228.5" r="1.5" fill="#BEC3D3" fill-opacity="0.42"/>
<circle cx="586.5" cy="276.5" r="1.5" fill="#BEC3D3" fill-opacity="0.42"/>
<circle cx="586.5" cy="325.5" r="1.5" fill="#BEC3D3" fill-opacity="0.42"/>
<circle cx="586.5" cy="373.5" r="1.5" fill="#BEC3D3" fill-opacity="0.42"/>
<circle cx="586.5" cy="252.5" r="1.5" fill="#BEC3D3" fill-opacity="0.42"/>
<circle cx="586.5" cy="301.5" r="1.5" fill="#BEC3D3" fill-opacity="0.42"/>
<circle cx="586.5" cy="349.5" r="1.5" fill="#BEC3D3" fill-opacity="0.42"/>
<g clip-path="url(#clip6_1759_128253)">
<circle cx="1336.5" cy="33.5" r="1.5" fill="#BEC3D3" fill-opacity="0.42"/>
<circle cx="1336.5" cy="82.5" r="1.5" fill="#BEC3D3" fill-opacity="0.42"/>
<circle cx="1336.5" cy="9.5" r="1.5" fill="#BEC3D3" fill-opacity="0.42"/>
<circle cx="1336.5" cy="58.5" r="1.5" fill="#BEC3D3" fill-opacity="0.42"/>
<circle cx="1336.5" cy="106.5" r="1.5" fill="#BEC3D3" fill-opacity="0.42"/>
<circle cx="1360.5" cy="33.5" r="1.5" fill="#BEC3D3" fill-opacity="0.42"/>
<circle cx="1360.5" cy="82.5" r="1.5" fill="#BEC3D3" fill-opacity="0.42"/>
<circle cx="1360.5" cy="9.5" r="1.5" fill="#BEC3D3" fill-opacity="0.42"/>
<circle cx="1360.5" cy="58.5" r="1.5" fill="#BEC3D3" fill-opacity="0.42"/>
<circle cx="1360.5" cy="106.5" r="1.5" fill="#BEC3D3" fill-opacity="0.42"/>
<circle cx="1384.5" cy="33.5" r="1.5" fill="#BEC3D3" fill-opacity="0.42"/>
<circle cx="1384.5" cy="82.5" r="1.5" fill="#BEC3D3" fill-opacity="0.42"/>
<circle cx="1384.5" cy="9.5" r="1.5" fill="#BEC3D3" fill-opacity="0.42"/>
<circle cx="1384.5" cy="58.5" r="1.5" fill="#BEC3D3" fill-opacity="0.42"/>
<circle cx="1384.5" cy="106.5" r="1.5" fill="#BEC3D3" fill-opacity="0.42"/>
<circle cx="1409.5" cy="33.5" r="1.5" fill="#BEC3D3" fill-opacity="0.42"/>
<circle cx="1409.5" cy="82.5" r="1.5" fill="#BEC3D3" fill-opacity="0.42"/>
<circle cx="1409.5" cy="9.5" r="1.5" fill="#BEC3D3" fill-opacity="0.42"/>
<circle cx="1409.5" cy="58.5" r="1.5" fill="#BEC3D3" fill-opacity="0.42"/>
<circle cx="1409.5" cy="106.5" r="1.5" fill="#BEC3D3" fill-opacity="0.42"/>
<circle cx="1288.5" cy="33.5" r="1.5" fill="#BEC3D3" fill-opacity="0.42"/>
<circle cx="1288.5" cy="82.5" r="1.5" fill="#BEC3D3" fill-opacity="0.42"/>
<circle cx="1288.5" cy="9.5" r="1.5" fill="#BEC3D3" fill-opacity="0.42"/>
<circle cx="1288.5" cy="58.5" r="1.5" fill="#BEC3D3" fill-opacity="0.42"/>
<circle cx="1288.5" cy="106.5" r="1.5" fill="#BEC3D3" fill-opacity="0.42"/>
<circle cx="1433.5" cy="33.5" r="1.5" fill="#BEC3D3" fill-opacity="0.42"/>
<circle cx="1433.5" cy="82.5" r="1.5" fill="#BEC3D3" fill-opacity="0.42"/>
<circle cx="1433.5" cy="9.5" r="1.5" fill="#BEC3D3" fill-opacity="0.42"/>
<circle cx="1433.5" cy="58.5" r="1.5" fill="#BEC3D3" fill-opacity="0.42"/>
<circle cx="1433.5" cy="106.5" r="1.5" fill="#BEC3D3" fill-opacity="0.42"/>
<circle cx="1312.5" cy="33.5" r="1.5" fill="#BEC3D3" fill-opacity="0.42"/>
<circle cx="1312.5" cy="82.5" r="1.5" fill="#BEC3D3" fill-opacity="0.42"/>
<circle cx="1312.5" cy="9.5" r="1.5" fill="#BEC3D3" fill-opacity="0.42"/>
<circle cx="1312.5" cy="58.5" r="1.5" fill="#BEC3D3" fill-opacity="0.42"/>
<circle cx="1312.5" cy="106.5" r="1.5" fill="#BEC3D3" fill-opacity="0.42"/>
</g>
<rect x="718" y="328" width="120" height="101" fill="white"/>
<rect x="1020" y="312" width="158" height="87" fill="white"/>
<rect x="55" y="328" width="281" height="87" fill="white"/>
</g>
<g clip-path="url(#clip7_1759_128253)">
<circle cx="125.5" cy="496.5" r="1.5" fill="#BEC3D3" fill-opacity="0.42"/>
<circle cx="125.5" cy="472.5" r="1.5" fill="#BEC3D3" fill-opacity="0.42"/>
<circle cx="4.5" cy="496.5" r="1.5" fill="#BEC3D3" fill-opacity="0.42"/>
<circle cx="4.5" cy="472.5" r="1.5" fill="#BEC3D3" fill-opacity="0.42"/>
<circle cx="149.5" cy="496.5" r="1.5" fill="#BEC3D3" fill-opacity="0.42"/>
<circle cx="149.5" cy="472.5" r="1.5" fill="#BEC3D3" fill-opacity="0.42"/>
<circle cx="28.5" cy="496.5" r="1.5" fill="#BEC3D3" fill-opacity="0.42"/>
<circle cx="28.5" cy="472.5" r="1.5" fill="#BEC3D3" fill-opacity="0.42"/>
<circle cx="173.5" cy="496.5" r="1.5" fill="#BEC3D3" fill-opacity="0.42"/>
<circle cx="173.5" cy="472.5" r="1.5" fill="#BEC3D3" fill-opacity="0.42"/>
<circle cx="52.5" cy="496.5" r="1.5" fill="#BEC3D3" fill-opacity="0.42"/>
<circle cx="52.5" cy="472.5" r="1.5" fill="#BEC3D3" fill-opacity="0.42"/>
<circle cx="198.5" cy="496.5" r="1.5" fill="#BEC3D3" fill-opacity="0.42"/>
<circle cx="198.5" cy="472.5" r="1.5" fill="#BEC3D3" fill-opacity="0.42"/>
<circle cx="77.5" cy="496.5" r="1.5" fill="#BEC3D3" fill-opacity="0.42"/>
<circle cx="77.5" cy="472.5" r="1.5" fill="#BEC3D3" fill-opacity="0.42"/>
<circle cx="222.5" cy="496.5" r="1.5" fill="#BEC3D3" fill-opacity="0.42"/>
<circle cx="222.5" cy="472.5" r="1.5" fill="#BEC3D3" fill-opacity="0.42"/>
<circle cx="101.5" cy="496.5" r="1.5" fill="#BEC3D3" fill-opacity="0.42"/>
<circle cx="101.5" cy="472.5" r="1.5" fill="#BEC3D3" fill-opacity="0.42"/>
</g>
<g clip-path="url(#clip8_1759_128253)">
<circle cx="364.5" cy="494.5" r="1.5" fill="#BEC3D3" fill-opacity="0.42"/>
<circle cx="243.5" cy="494.5" r="1.5" fill="#BEC3D3" fill-opacity="0.42"/>
<circle cx="388.5" cy="494.5" r="1.5" fill="#BEC3D3" fill-opacity="0.42"/>
<circle cx="267.5" cy="494.5" r="1.5" fill="#BEC3D3" fill-opacity="0.42"/>
<circle cx="291.5" cy="494.5" r="1.5" fill="#BEC3D3" fill-opacity="0.42"/>
<circle cx="316.5" cy="494.5" r="1.5" fill="#BEC3D3" fill-opacity="0.42"/>
<circle cx="340.5" cy="494.5" r="1.5" fill="#BEC3D3" fill-opacity="0.42"/>
</g>
<defs>
<clipPath id="clip0_1759_128253">
<rect width="171" height="103" fill="white" transform="translate(463 379)"/>
</clipPath>
<clipPath id="clip1_1759_128253">
<rect width="188" height="103" fill="white" transform="translate(826 381)"/>
</clipPath>
<clipPath id="clip2_1759_128253">
<rect width="188" height="134" fill="white" transform="translate(1261 372)"/>
</clipPath>
<clipPath id="clip3_1759_128253">
<rect width="1432" height="370" fill="white" transform="translate(4 6)"/>
</clipPath>
<clipPath id="clip4_1759_128253">
<rect width="222" height="131" fill="white" transform="translate(4 227)"/>
</clipPath>
<clipPath id="clip5_1759_128253">
<rect width="222" height="134" fill="white" transform="translate(488 72)"/>
</clipPath>
<clipPath id="clip6_1759_128253">
<rect width="160" height="138" fill="white" transform="translate(1276 -16)"/>
</clipPath>
<clipPath id="clip7_1759_128253">
<rect width="222" height="155" fill="white" transform="translate(3 465)"/>
</clipPath>
<clipPath id="clip8_1759_128253">
<rect width="157" height="222" fill="white" transform="translate(242 493)"/>
</clipPath>
</defs>
</svg>
