<svg width="1439" height="704" viewBox="0 0 1439 704" fill="none" xmlns="http://www.w3.org/2000/svg">
<g clip-path="url(#clip0_1759_133903)">
<g clip-path="url(#clip1_1759_133903)">
<circle cx="1213" cy="348.5" r="1.5" fill="#BEC3D3" fill-opacity="0.42"/>
<circle cx="1213" cy="396.5" r="1.5" fill="#BEC3D3" fill-opacity="0.42"/>
<circle cx="1213" cy="324.5" r="1.5" fill="#BEC3D3" fill-opacity="0.42"/>
<circle cx="1213" cy="372.5" r="1.5" fill="#BEC3D3" fill-opacity="0.42"/>
<circle cx="1213" cy="420.5" r="1.5" fill="#BEC3D3" fill-opacity="0.42"/>
<circle cx="1237" cy="348.5" r="1.5" fill="#BEC3D3" fill-opacity="0.42"/>
<circle cx="1237" cy="396.5" r="1.5" fill="#BEC3D3" fill-opacity="0.42"/>
<circle cx="1237" cy="324.5" r="1.5" fill="#BEC3D3" fill-opacity="0.42"/>
<circle cx="1237" cy="372.5" r="1.5" fill="#BEC3D3" fill-opacity="0.42"/>
<circle cx="1237" cy="420.5" r="1.5" fill="#BEC3D3" fill-opacity="0.42"/>
<circle cx="1261" cy="348.5" r="1.5" fill="#BEC3D3" fill-opacity="0.42"/>
<circle cx="1261" cy="396.5" r="1.5" fill="#BEC3D3" fill-opacity="0.42"/>
<circle cx="1261" cy="324.5" r="1.5" fill="#BEC3D3" fill-opacity="0.42"/>
<circle cx="1261" cy="372.5" r="1.5" fill="#BEC3D3" fill-opacity="0.42"/>
<circle cx="1261" cy="420.5" r="1.5" fill="#BEC3D3" fill-opacity="0.42"/>
<circle cx="1140" cy="348.5" r="1.5" fill="#BEC3D3" fill-opacity="0.42"/>
<circle cx="1140" cy="396.5" r="1.5" fill="#BEC3D3" fill-opacity="0.42"/>
<circle cx="1140" cy="324.5" r="1.5" fill="#BEC3D3" fill-opacity="0.42"/>
<circle cx="1140" cy="372.5" r="1.5" fill="#BEC3D3" fill-opacity="0.42"/>
<circle cx="1140" cy="420.5" r="1.5" fill="#BEC3D3" fill-opacity="0.42"/>
<circle cx="1165" cy="348.5" r="1.5" fill="#BEC3D3" fill-opacity="0.42"/>
<circle cx="1165" cy="396.5" r="1.5" fill="#BEC3D3" fill-opacity="0.42"/>
<circle cx="1165" cy="324.5" r="1.5" fill="#BEC3D3" fill-opacity="0.42"/>
<circle cx="1165" cy="372.5" r="1.5" fill="#BEC3D3" fill-opacity="0.42"/>
<circle cx="1165" cy="420.5" r="1.5" fill="#BEC3D3" fill-opacity="0.42"/>
<circle cx="1189" cy="348.5" r="1.5" fill="#BEC3D3" fill-opacity="0.42"/>
<circle cx="1189" cy="396.5" r="1.5" fill="#BEC3D3" fill-opacity="0.42"/>
<circle cx="1189" cy="324.5" r="1.5" fill="#BEC3D3" fill-opacity="0.42"/>
<circle cx="1189" cy="372.5" r="1.5" fill="#BEC3D3" fill-opacity="0.42"/>
<circle cx="1189" cy="420.5" r="1.5" fill="#BEC3D3" fill-opacity="0.42"/>
</g>
<g clip-path="url(#clip2_1759_133903)">
<circle cx="1364" cy="224.5" r="1.5" fill="#BEC3D3" fill-opacity="0.42"/>
<circle cx="1364" cy="272.5" r="1.5" fill="#BEC3D3" fill-opacity="0.42"/>
<circle cx="1364" cy="321.5" r="1.5" fill="#BEC3D3" fill-opacity="0.42"/>
<circle cx="1364" cy="200.5" r="1.5" fill="#BEC3D3" fill-opacity="0.42"/>
<circle cx="1364" cy="248.5" r="1.5" fill="#BEC3D3" fill-opacity="0.42"/>
<circle cx="1364" cy="296.5" r="1.5" fill="#BEC3D3" fill-opacity="0.42"/>
<circle cx="1364" cy="345.5" r="1.5" fill="#BEC3D3" fill-opacity="0.42"/>
<circle cx="1388" cy="224.5" r="1.5" fill="#BEC3D3" fill-opacity="0.42"/>
<circle cx="1388" cy="272.5" r="1.5" fill="#BEC3D3" fill-opacity="0.42"/>
<circle cx="1388" cy="321.5" r="1.5" fill="#BEC3D3" fill-opacity="0.42"/>
<circle cx="1388" cy="200.5" r="1.5" fill="#BEC3D3" fill-opacity="0.42"/>
<circle cx="1388" cy="248.5" r="1.5" fill="#BEC3D3" fill-opacity="0.42"/>
<circle cx="1388" cy="296.5" r="1.5" fill="#BEC3D3" fill-opacity="0.42"/>
<circle cx="1388" cy="345.5" r="1.5" fill="#BEC3D3" fill-opacity="0.42"/>
<circle cx="1412" cy="224.5" r="1.5" fill="#BEC3D3" fill-opacity="0.42"/>
<circle cx="1412" cy="272.5" r="1.5" fill="#BEC3D3" fill-opacity="0.42"/>
<circle cx="1412" cy="321.5" r="1.5" fill="#BEC3D3" fill-opacity="0.42"/>
<circle cx="1412" cy="200.5" r="1.5" fill="#BEC3D3" fill-opacity="0.42"/>
<circle cx="1412" cy="248.5" r="1.5" fill="#BEC3D3" fill-opacity="0.42"/>
<circle cx="1412" cy="296.5" r="1.5" fill="#BEC3D3" fill-opacity="0.42"/>
<circle cx="1412" cy="345.5" r="1.5" fill="#BEC3D3" fill-opacity="0.42"/>
<circle cx="1291" cy="224.5" r="1.5" fill="#BEC3D3" fill-opacity="0.42"/>
<circle cx="1291" cy="272.5" r="1.5" fill="#BEC3D3" fill-opacity="0.42"/>
<circle cx="1291" cy="321.5" r="1.5" fill="#BEC3D3" fill-opacity="0.42"/>
<circle cx="1291" cy="200.5" r="1.5" fill="#BEC3D3" fill-opacity="0.42"/>
<circle cx="1291" cy="248.5" r="1.5" fill="#BEC3D3" fill-opacity="0.42"/>
<circle cx="1291" cy="296.5" r="1.5" fill="#BEC3D3" fill-opacity="0.42"/>
<circle cx="1291" cy="345.5" r="1.5" fill="#BEC3D3" fill-opacity="0.42"/>
<circle cx="1316" cy="224.5" r="1.5" fill="#BEC3D3" fill-opacity="0.42"/>
<circle cx="1316" cy="272.5" r="1.5" fill="#BEC3D3" fill-opacity="0.42"/>
<circle cx="1316" cy="321.5" r="1.5" fill="#BEC3D3" fill-opacity="0.42"/>
<circle cx="1316" cy="200.5" r="1.5" fill="#BEC3D3" fill-opacity="0.42"/>
<circle cx="1316" cy="248.5" r="1.5" fill="#BEC3D3" fill-opacity="0.42"/>
<circle cx="1316" cy="296.5" r="1.5" fill="#BEC3D3" fill-opacity="0.42"/>
<circle cx="1316" cy="345.5" r="1.5" fill="#BEC3D3" fill-opacity="0.42"/>
<circle cx="1340" cy="224.5" r="1.5" fill="#BEC3D3" fill-opacity="0.42"/>
<circle cx="1340" cy="272.5" r="1.5" fill="#BEC3D3" fill-opacity="0.42"/>
<circle cx="1340" cy="321.5" r="1.5" fill="#BEC3D3" fill-opacity="0.42"/>
<circle cx="1340" cy="200.5" r="1.5" fill="#BEC3D3" fill-opacity="0.42"/>
<circle cx="1340" cy="248.5" r="1.5" fill="#BEC3D3" fill-opacity="0.42"/>
<circle cx="1340" cy="296.5" r="1.5" fill="#BEC3D3" fill-opacity="0.42"/>
<circle cx="1340" cy="345.5" r="1.5" fill="#BEC3D3" fill-opacity="0.42"/>
</g>
<g clip-path="url(#clip3_1759_133903)">
<circle cx="1158" cy="44.5" r="1.5" fill="#BEC3D3" fill-opacity="0.42"/>
<circle cx="1158" cy="92.5" r="1.5" fill="#BEC3D3" fill-opacity="0.42"/>
<circle cx="1158" cy="20.5" r="1.5" fill="#BEC3D3" fill-opacity="0.42"/>
<circle cx="1158" cy="68.5" r="1.5" fill="#BEC3D3" fill-opacity="0.42"/>
<circle cx="1158" cy="116.5" r="1.5" fill="#BEC3D3" fill-opacity="0.42"/>
<circle cx="1182" cy="44.5" r="1.5" fill="#BEC3D3" fill-opacity="0.42"/>
<circle cx="1182" cy="92.5" r="1.5" fill="#BEC3D3" fill-opacity="0.42"/>
<circle cx="1182" cy="20.5" r="1.5" fill="#BEC3D3" fill-opacity="0.42"/>
<circle cx="1182" cy="68.5" r="1.5" fill="#BEC3D3" fill-opacity="0.42"/>
<circle cx="1182" cy="116.5" r="1.5" fill="#BEC3D3" fill-opacity="0.42"/>
<circle cx="1206" cy="44.5" r="1.5" fill="#BEC3D3" fill-opacity="0.42"/>
<circle cx="1206" cy="92.5" r="1.5" fill="#BEC3D3" fill-opacity="0.42"/>
<circle cx="1206" cy="20.5" r="1.5" fill="#BEC3D3" fill-opacity="0.42"/>
<circle cx="1206" cy="68.5" r="1.5" fill="#BEC3D3" fill-opacity="0.42"/>
<circle cx="1206" cy="116.5" r="1.5" fill="#BEC3D3" fill-opacity="0.42"/>
<circle cx="1085" cy="44.5" r="1.5" fill="#BEC3D3" fill-opacity="0.42"/>
<circle cx="1085" cy="92.5" r="1.5" fill="#BEC3D3" fill-opacity="0.42"/>
<circle cx="1085" cy="20.5" r="1.5" fill="#BEC3D3" fill-opacity="0.42"/>
<circle cx="1085" cy="68.5" r="1.5" fill="#BEC3D3" fill-opacity="0.42"/>
<circle cx="1085" cy="116.5" r="1.5" fill="#BEC3D3" fill-opacity="0.42"/>
<circle cx="1110" cy="44.5" r="1.5" fill="#BEC3D3" fill-opacity="0.42"/>
<circle cx="1110" cy="92.5" r="1.5" fill="#BEC3D3" fill-opacity="0.42"/>
<circle cx="1110" cy="20.5" r="1.5" fill="#BEC3D3" fill-opacity="0.42"/>
<circle cx="1110" cy="68.5" r="1.5" fill="#BEC3D3" fill-opacity="0.42"/>
<circle cx="1110" cy="116.5" r="1.5" fill="#BEC3D3" fill-opacity="0.42"/>
<circle cx="1134" cy="44.5" r="1.5" fill="#BEC3D3" fill-opacity="0.42"/>
<circle cx="1134" cy="92.5" r="1.5" fill="#BEC3D3" fill-opacity="0.42"/>
<circle cx="1134" cy="20.5" r="1.5" fill="#BEC3D3" fill-opacity="0.42"/>
<circle cx="1134" cy="68.5" r="1.5" fill="#BEC3D3" fill-opacity="0.42"/>
<circle cx="1134" cy="116.5" r="1.5" fill="#BEC3D3" fill-opacity="0.42"/>
</g>
<g clip-path="url(#clip4_1759_133903)">
<circle cx="1374" cy="33.5" r="1.5" fill="#BEC3D3" fill-opacity="0.42"/>
<circle cx="1374" cy="9.5" r="1.5" fill="#BEC3D3" fill-opacity="0.42"/>
<circle cx="1374" cy="57.5" r="1.5" fill="#BEC3D3" fill-opacity="0.42"/>
<circle cx="1398" cy="33.5" r="1.5" fill="#BEC3D3" fill-opacity="0.42"/>
<circle cx="1398" cy="9.5" r="1.5" fill="#BEC3D3" fill-opacity="0.42"/>
<circle cx="1398" cy="57.5" r="1.5" fill="#BEC3D3" fill-opacity="0.42"/>
<circle cx="1277" cy="33.5" r="1.5" fill="#BEC3D3" fill-opacity="0.42"/>
<circle cx="1277" cy="9.5" r="1.5" fill="#BEC3D3" fill-opacity="0.42"/>
<circle cx="1277" cy="57.5" r="1.5" fill="#BEC3D3" fill-opacity="0.42"/>
<circle cx="1422" cy="33.5" r="1.5" fill="#BEC3D3" fill-opacity="0.42"/>
<circle cx="1422" cy="9.5" r="1.5" fill="#BEC3D3" fill-opacity="0.42"/>
<circle cx="1422" cy="57.5" r="1.5" fill="#BEC3D3" fill-opacity="0.42"/>
<circle cx="1301" cy="33.5" r="1.5" fill="#BEC3D3" fill-opacity="0.42"/>
<circle cx="1301" cy="9.5" r="1.5" fill="#BEC3D3" fill-opacity="0.42"/>
<circle cx="1301" cy="57.5" r="1.5" fill="#BEC3D3" fill-opacity="0.42"/>
<circle cx="1326" cy="33.5" r="1.5" fill="#BEC3D3" fill-opacity="0.42"/>
<circle cx="1326" cy="9.5" r="1.5" fill="#BEC3D3" fill-opacity="0.42"/>
<circle cx="1326" cy="57.5" r="1.5" fill="#BEC3D3" fill-opacity="0.42"/>
<circle cx="1350" cy="33.5" r="1.5" fill="#BEC3D3" fill-opacity="0.42"/>
<circle cx="1350" cy="9.5" r="1.5" fill="#BEC3D3" fill-opacity="0.42"/>
<circle cx="1350" cy="57.5" r="1.5" fill="#BEC3D3" fill-opacity="0.42"/>
</g>
<g clip-path="url(#clip5_1759_133903)">
<circle cx="235" cy="178.5" r="1.5" fill="#BEC3D3" fill-opacity="0.42"/>
<circle cx="235" cy="226.5" r="1.5" fill="#BEC3D3" fill-opacity="0.42"/>
<circle cx="235" cy="154.5" r="1.5" fill="#BEC3D3" fill-opacity="0.42"/>
<circle cx="235" cy="202.5" r="1.5" fill="#BEC3D3" fill-opacity="0.42"/>
<circle cx="235" cy="250.5" r="1.5" fill="#BEC3D3" fill-opacity="0.42"/>
<circle cx="259" cy="178.5" r="1.5" fill="#BEC3D3" fill-opacity="0.42"/>
<circle cx="259" cy="226.5" r="1.5" fill="#BEC3D3" fill-opacity="0.42"/>
<circle cx="259" cy="154.5" r="1.5" fill="#BEC3D3" fill-opacity="0.42"/>
<circle cx="259" cy="202.5" r="1.5" fill="#BEC3D3" fill-opacity="0.42"/>
<circle cx="259" cy="250.5" r="1.5" fill="#BEC3D3" fill-opacity="0.42"/>
<circle cx="283" cy="178.5" r="1.5" fill="#BEC3D3" fill-opacity="0.42"/>
<circle cx="283" cy="226.5" r="1.5" fill="#BEC3D3" fill-opacity="0.42"/>
<circle cx="283" cy="154.5" r="1.5" fill="#BEC3D3" fill-opacity="0.42"/>
<circle cx="283" cy="202.5" r="1.5" fill="#BEC3D3" fill-opacity="0.42"/>
<circle cx="283" cy="250.5" r="1.5" fill="#BEC3D3" fill-opacity="0.42"/>
<circle cx="162" cy="178.5" r="1.5" fill="#BEC3D3" fill-opacity="0.42"/>
<circle cx="162" cy="226.5" r="1.5" fill="#BEC3D3" fill-opacity="0.42"/>
<circle cx="162" cy="154.5" r="1.5" fill="#BEC3D3" fill-opacity="0.42"/>
<circle cx="162" cy="202.5" r="1.5" fill="#BEC3D3" fill-opacity="0.42"/>
<circle cx="162" cy="250.5" r="1.5" fill="#BEC3D3" fill-opacity="0.42"/>
<circle cx="187" cy="178.5" r="1.5" fill="#BEC3D3" fill-opacity="0.42"/>
<circle cx="187" cy="226.5" r="1.5" fill="#BEC3D3" fill-opacity="0.42"/>
<circle cx="187" cy="154.5" r="1.5" fill="#BEC3D3" fill-opacity="0.42"/>
<circle cx="187" cy="202.5" r="1.5" fill="#BEC3D3" fill-opacity="0.42"/>
<circle cx="187" cy="250.5" r="1.5" fill="#BEC3D3" fill-opacity="0.42"/>
<circle cx="211" cy="178.5" r="1.5" fill="#BEC3D3" fill-opacity="0.42"/>
<circle cx="211" cy="226.5" r="1.5" fill="#BEC3D3" fill-opacity="0.42"/>
<circle cx="211" cy="154.5" r="1.5" fill="#BEC3D3" fill-opacity="0.42"/>
<circle cx="211" cy="202.5" r="1.5" fill="#BEC3D3" fill-opacity="0.42"/>
<circle cx="211" cy="250.5" r="1.5" fill="#BEC3D3" fill-opacity="0.42"/>
</g>
<g clip-path="url(#clip6_1759_133903)">
<circle cx="93" cy="304.5" r="1.5" fill="#BEC3D3" fill-opacity="0.42"/>
<circle cx="93" cy="352.5" r="1.5" fill="#BEC3D3" fill-opacity="0.42"/>
<circle cx="93" cy="280.5" r="1.5" fill="#BEC3D3" fill-opacity="0.42"/>
<circle cx="93" cy="328.5" r="1.5" fill="#BEC3D3" fill-opacity="0.42"/>
<circle cx="93" cy="376.5" r="1.5" fill="#BEC3D3" fill-opacity="0.42"/>
<circle cx="117" cy="304.5" r="1.5" fill="#BEC3D3" fill-opacity="0.42"/>
<circle cx="117" cy="352.5" r="1.5" fill="#BEC3D3" fill-opacity="0.42"/>
<circle cx="117" cy="280.5" r="1.5" fill="#BEC3D3" fill-opacity="0.42"/>
<circle cx="117" cy="328.5" r="1.5" fill="#BEC3D3" fill-opacity="0.42"/>
<circle cx="117" cy="376.5" r="1.5" fill="#BEC3D3" fill-opacity="0.42"/>
<circle cx="141" cy="304.5" r="1.5" fill="#BEC3D3" fill-opacity="0.42"/>
<circle cx="141" cy="352.5" r="1.5" fill="#BEC3D3" fill-opacity="0.42"/>
<circle cx="141" cy="280.5" r="1.5" fill="#BEC3D3" fill-opacity="0.42"/>
<circle cx="141" cy="328.5" r="1.5" fill="#BEC3D3" fill-opacity="0.42"/>
<circle cx="141" cy="376.5" r="1.5" fill="#BEC3D3" fill-opacity="0.42"/>
<circle cx="20" cy="304.5" r="1.5" fill="#BEC3D3" fill-opacity="0.42"/>
<circle cx="20" cy="352.5" r="1.5" fill="#BEC3D3" fill-opacity="0.42"/>
<circle cx="20" cy="280.5" r="1.5" fill="#BEC3D3" fill-opacity="0.42"/>
<circle cx="20" cy="328.5" r="1.5" fill="#BEC3D3" fill-opacity="0.42"/>
<circle cx="20" cy="376.5" r="1.5" fill="#BEC3D3" fill-opacity="0.42"/>
<circle cx="45" cy="304.5" r="1.5" fill="#BEC3D3" fill-opacity="0.42"/>
<circle cx="45" cy="352.5" r="1.5" fill="#BEC3D3" fill-opacity="0.42"/>
<circle cx="45" cy="280.5" r="1.5" fill="#BEC3D3" fill-opacity="0.42"/>
<circle cx="45" cy="328.5" r="1.5" fill="#BEC3D3" fill-opacity="0.42"/>
<circle cx="45" cy="376.5" r="1.5" fill="#BEC3D3" fill-opacity="0.42"/>
<circle cx="69" cy="304.5" r="1.5" fill="#BEC3D3" fill-opacity="0.42"/>
<circle cx="69" cy="352.5" r="1.5" fill="#BEC3D3" fill-opacity="0.42"/>
<circle cx="69" cy="280.5" r="1.5" fill="#BEC3D3" fill-opacity="0.42"/>
<circle cx="69" cy="328.5" r="1.5" fill="#BEC3D3" fill-opacity="0.42"/>
<circle cx="69" cy="376.5" r="1.5" fill="#BEC3D3" fill-opacity="0.42"/>
</g>
<g clip-path="url(#clip7_1759_133903)">
<circle cx="1367" cy="609.5" r="1.5" fill="#BEC3D3" fill-opacity="0.42"/>
<circle cx="1367" cy="657.5" r="1.5" fill="#BEC3D3" fill-opacity="0.42"/>
<circle cx="1367" cy="585.5" r="1.5" fill="#BEC3D3" fill-opacity="0.42"/>
<circle cx="1367" cy="633.5" r="1.5" fill="#BEC3D3" fill-opacity="0.42"/>
<circle cx="1367" cy="681.5" r="1.5" fill="#BEC3D3" fill-opacity="0.42"/>
<circle cx="1391" cy="609.5" r="1.5" fill="#BEC3D3" fill-opacity="0.42"/>
<circle cx="1391" cy="657.5" r="1.5" fill="#BEC3D3" fill-opacity="0.42"/>
<circle cx="1391" cy="585.5" r="1.5" fill="#BEC3D3" fill-opacity="0.42"/>
<circle cx="1391" cy="633.5" r="1.5" fill="#BEC3D3" fill-opacity="0.42"/>
<circle cx="1391" cy="681.5" r="1.5" fill="#BEC3D3" fill-opacity="0.42"/>
<circle cx="1415" cy="609.5" r="1.5" fill="#BEC3D3" fill-opacity="0.42"/>
<circle cx="1415" cy="657.5" r="1.5" fill="#BEC3D3" fill-opacity="0.42"/>
<circle cx="1415" cy="585.5" r="1.5" fill="#BEC3D3" fill-opacity="0.42"/>
<circle cx="1415" cy="633.5" r="1.5" fill="#BEC3D3" fill-opacity="0.42"/>
<circle cx="1415" cy="681.5" r="1.5" fill="#BEC3D3" fill-opacity="0.42"/>
<circle cx="1294" cy="609.5" r="1.5" fill="#BEC3D3" fill-opacity="0.42"/>
<circle cx="1294" cy="657.5" r="1.5" fill="#BEC3D3" fill-opacity="0.42"/>
<circle cx="1294" cy="585.5" r="1.5" fill="#BEC3D3" fill-opacity="0.42"/>
<circle cx="1294" cy="633.5" r="1.5" fill="#BEC3D3" fill-opacity="0.42"/>
<circle cx="1294" cy="681.5" r="1.5" fill="#BEC3D3" fill-opacity="0.42"/>
<circle cx="1319" cy="609.5" r="1.5" fill="#BEC3D3" fill-opacity="0.42"/>
<circle cx="1319" cy="657.5" r="1.5" fill="#BEC3D3" fill-opacity="0.42"/>
<circle cx="1319" cy="585.5" r="1.5" fill="#BEC3D3" fill-opacity="0.42"/>
<circle cx="1319" cy="633.5" r="1.5" fill="#BEC3D3" fill-opacity="0.42"/>
<circle cx="1319" cy="681.5" r="1.5" fill="#BEC3D3" fill-opacity="0.42"/>
<circle cx="1343" cy="609.5" r="1.5" fill="#BEC3D3" fill-opacity="0.42"/>
<circle cx="1343" cy="657.5" r="1.5" fill="#BEC3D3" fill-opacity="0.42"/>
<circle cx="1343" cy="585.5" r="1.5" fill="#BEC3D3" fill-opacity="0.42"/>
<circle cx="1343" cy="633.5" r="1.5" fill="#BEC3D3" fill-opacity="0.42"/>
<circle cx="1343" cy="681.5" r="1.5" fill="#BEC3D3" fill-opacity="0.42"/>
</g>
<g clip-path="url(#clip8_1759_133903)">
<circle cx="820" cy="649.5" r="1.5" fill="#BEC3D3" fill-opacity="0.42"/>
<circle cx="820" cy="698.5" r="1.5" fill="#BEC3D3" fill-opacity="0.42"/>
<circle cx="820" cy="673.5" r="1.5" fill="#BEC3D3" fill-opacity="0.42"/>
<circle cx="844" cy="649.5" r="1.5" fill="#BEC3D3" fill-opacity="0.42"/>
<circle cx="844" cy="698.5" r="1.5" fill="#BEC3D3" fill-opacity="0.42"/>
<circle cx="844" cy="673.5" r="1.5" fill="#BEC3D3" fill-opacity="0.42"/>
<circle cx="868" cy="649.5" r="1.5" fill="#BEC3D3" fill-opacity="0.42"/>
<circle cx="868" cy="698.5" r="1.5" fill="#BEC3D3" fill-opacity="0.42"/>
<circle cx="868" cy="673.5" r="1.5" fill="#BEC3D3" fill-opacity="0.42"/>
<circle cx="747" cy="649.5" r="1.5" fill="#BEC3D3" fill-opacity="0.42"/>
<circle cx="747" cy="698.5" r="1.5" fill="#BEC3D3" fill-opacity="0.42"/>
<circle cx="747" cy="673.5" r="1.5" fill="#BEC3D3" fill-opacity="0.42"/>
<circle cx="772" cy="649.5" r="1.5" fill="#BEC3D3" fill-opacity="0.42"/>
<circle cx="772" cy="698.5" r="1.5" fill="#BEC3D3" fill-opacity="0.42"/>
<circle cx="772" cy="673.5" r="1.5" fill="#BEC3D3" fill-opacity="0.42"/>
<circle cx="796" cy="649.5" r="1.5" fill="#BEC3D3" fill-opacity="0.42"/>
<circle cx="796" cy="698.5" r="1.5" fill="#BEC3D3" fill-opacity="0.42"/>
<circle cx="796" cy="673.5" r="1.5" fill="#BEC3D3" fill-opacity="0.42"/>
</g>
<g clip-path="url(#clip9_1759_133903)">
<circle cx="1053" cy="599.5" r="1.5" fill="#BEC3D3" fill-opacity="0.42"/>
<circle cx="1053" cy="648.5" r="1.5" fill="#BEC3D3" fill-opacity="0.42"/>
<circle cx="1053" cy="575.5" r="1.5" fill="#BEC3D3" fill-opacity="0.42"/>
<circle cx="1053" cy="623.5" r="1.5" fill="#BEC3D3" fill-opacity="0.42"/>
<circle cx="1053" cy="672.5" r="1.5" fill="#BEC3D3" fill-opacity="0.42"/>
<circle cx="1077" cy="599.5" r="1.5" fill="#BEC3D3" fill-opacity="0.42"/>
<circle cx="1077" cy="648.5" r="1.5" fill="#BEC3D3" fill-opacity="0.42"/>
<circle cx="1077" cy="575.5" r="1.5" fill="#BEC3D3" fill-opacity="0.42"/>
<circle cx="1077" cy="623.5" r="1.5" fill="#BEC3D3" fill-opacity="0.42"/>
<circle cx="1077" cy="672.5" r="1.5" fill="#BEC3D3" fill-opacity="0.42"/>
<circle cx="1101" cy="599.5" r="1.5" fill="#BEC3D3" fill-opacity="0.42"/>
<circle cx="1101" cy="648.5" r="1.5" fill="#BEC3D3" fill-opacity="0.42"/>
<circle cx="1101" cy="575.5" r="1.5" fill="#BEC3D3" fill-opacity="0.42"/>
<circle cx="1101" cy="623.5" r="1.5" fill="#BEC3D3" fill-opacity="0.42"/>
<circle cx="1101" cy="672.5" r="1.5" fill="#BEC3D3" fill-opacity="0.42"/>
<circle cx="980" cy="599.5" r="1.5" fill="#BEC3D3" fill-opacity="0.42"/>
<circle cx="980" cy="648.5" r="1.5" fill="#BEC3D3" fill-opacity="0.42"/>
<circle cx="980" cy="575.5" r="1.5" fill="#BEC3D3" fill-opacity="0.42"/>
<circle cx="980" cy="623.5" r="1.5" fill="#BEC3D3" fill-opacity="0.42"/>
<circle cx="980" cy="672.5" r="1.5" fill="#BEC3D3" fill-opacity="0.42"/>
<circle cx="1005" cy="599.5" r="1.5" fill="#BEC3D3" fill-opacity="0.42"/>
<circle cx="1005" cy="648.5" r="1.5" fill="#BEC3D3" fill-opacity="0.42"/>
<circle cx="1005" cy="575.5" r="1.5" fill="#BEC3D3" fill-opacity="0.42"/>
<circle cx="1005" cy="623.5" r="1.5" fill="#BEC3D3" fill-opacity="0.42"/>
<circle cx="1005" cy="672.5" r="1.5" fill="#BEC3D3" fill-opacity="0.42"/>
<circle cx="1029" cy="599.5" r="1.5" fill="#BEC3D3" fill-opacity="0.42"/>
<circle cx="1029" cy="648.5" r="1.5" fill="#BEC3D3" fill-opacity="0.42"/>
<circle cx="1029" cy="575.5" r="1.5" fill="#BEC3D3" fill-opacity="0.42"/>
<circle cx="1029" cy="623.5" r="1.5" fill="#BEC3D3" fill-opacity="0.42"/>
<circle cx="1029" cy="672.5" r="1.5" fill="#BEC3D3" fill-opacity="0.42"/>
</g>
<g clip-path="url(#clip10_1759_133903)">
<circle cx="1367" cy="491.5" r="1.5" fill="#BEC3D3" fill-opacity="0.42"/>
<circle cx="1367" cy="540.5" r="1.5" fill="#BEC3D3" fill-opacity="0.42"/>
<circle cx="1367" cy="467.5" r="1.5" fill="#BEC3D3" fill-opacity="0.42"/>
<circle cx="1367" cy="515.5" r="1.5" fill="#BEC3D3" fill-opacity="0.42"/>
<circle cx="1367" cy="564.5" r="1.5" fill="#BEC3D3" fill-opacity="0.42"/>
<circle cx="1391" cy="491.5" r="1.5" fill="#BEC3D3" fill-opacity="0.42"/>
<circle cx="1391" cy="540.5" r="1.5" fill="#BEC3D3" fill-opacity="0.42"/>
<circle cx="1391" cy="467.5" r="1.5" fill="#BEC3D3" fill-opacity="0.42"/>
<circle cx="1391" cy="515.5" r="1.5" fill="#BEC3D3" fill-opacity="0.42"/>
<circle cx="1391" cy="564.5" r="1.5" fill="#BEC3D3" fill-opacity="0.42"/>
<circle cx="1415" cy="491.5" r="1.5" fill="#BEC3D3" fill-opacity="0.42"/>
<circle cx="1415" cy="540.5" r="1.5" fill="#BEC3D3" fill-opacity="0.42"/>
<circle cx="1415" cy="467.5" r="1.5" fill="#BEC3D3" fill-opacity="0.42"/>
<circle cx="1415" cy="515.5" r="1.5" fill="#BEC3D3" fill-opacity="0.42"/>
<circle cx="1415" cy="564.5" r="1.5" fill="#BEC3D3" fill-opacity="0.42"/>
<circle cx="1294" cy="491.5" r="1.5" fill="#BEC3D3" fill-opacity="0.42"/>
<circle cx="1294" cy="540.5" r="1.5" fill="#BEC3D3" fill-opacity="0.42"/>
<circle cx="1294" cy="467.5" r="1.5" fill="#BEC3D3" fill-opacity="0.42"/>
<circle cx="1294" cy="515.5" r="1.5" fill="#BEC3D3" fill-opacity="0.42"/>
<circle cx="1294" cy="564.5" r="1.5" fill="#BEC3D3" fill-opacity="0.42"/>
<circle cx="1319" cy="491.5" r="1.5" fill="#BEC3D3" fill-opacity="0.42"/>
<circle cx="1319" cy="540.5" r="1.5" fill="#BEC3D3" fill-opacity="0.42"/>
<circle cx="1319" cy="467.5" r="1.5" fill="#BEC3D3" fill-opacity="0.42"/>
<circle cx="1319" cy="515.5" r="1.5" fill="#BEC3D3" fill-opacity="0.42"/>
<circle cx="1319" cy="564.5" r="1.5" fill="#BEC3D3" fill-opacity="0.42"/>
<circle cx="1343" cy="491.5" r="1.5" fill="#BEC3D3" fill-opacity="0.42"/>
<circle cx="1343" cy="540.5" r="1.5" fill="#BEC3D3" fill-opacity="0.42"/>
<circle cx="1343" cy="467.5" r="1.5" fill="#BEC3D3" fill-opacity="0.42"/>
<circle cx="1343" cy="515.5" r="1.5" fill="#BEC3D3" fill-opacity="0.42"/>
<circle cx="1343" cy="564.5" r="1.5" fill="#BEC3D3" fill-opacity="0.42"/>
</g>
<g clip-path="url(#clip11_1759_133903)">
<circle cx="182" cy="609.5" r="1.5" fill="#BEC3D3" fill-opacity="0.42"/>
<circle cx="182" cy="657.5" r="1.5" fill="#BEC3D3" fill-opacity="0.42"/>
<circle cx="182" cy="585.5" r="1.5" fill="#BEC3D3" fill-opacity="0.42"/>
<circle cx="182" cy="633.5" r="1.5" fill="#BEC3D3" fill-opacity="0.42"/>
<circle cx="182" cy="681.5" r="1.5" fill="#BEC3D3" fill-opacity="0.42"/>
<circle cx="206" cy="609.5" r="1.5" fill="#BEC3D3" fill-opacity="0.42"/>
<circle cx="206" cy="657.5" r="1.5" fill="#BEC3D3" fill-opacity="0.42"/>
<circle cx="206" cy="585.5" r="1.5" fill="#BEC3D3" fill-opacity="0.42"/>
<circle cx="206" cy="633.5" r="1.5" fill="#BEC3D3" fill-opacity="0.42"/>
<circle cx="206" cy="681.5" r="1.5" fill="#BEC3D3" fill-opacity="0.42"/>
<circle cx="230" cy="609.5" r="1.5" fill="#BEC3D3" fill-opacity="0.42"/>
<circle cx="230" cy="657.5" r="1.5" fill="#BEC3D3" fill-opacity="0.42"/>
<circle cx="230" cy="585.5" r="1.5" fill="#BEC3D3" fill-opacity="0.42"/>
<circle cx="230" cy="633.5" r="1.5" fill="#BEC3D3" fill-opacity="0.42"/>
<circle cx="230" cy="681.5" r="1.5" fill="#BEC3D3" fill-opacity="0.42"/>
<circle cx="109" cy="609.5" r="1.5" fill="#BEC3D3" fill-opacity="0.42"/>
<circle cx="109" cy="657.5" r="1.5" fill="#BEC3D3" fill-opacity="0.42"/>
<circle cx="109" cy="585.5" r="1.5" fill="#BEC3D3" fill-opacity="0.42"/>
<circle cx="109" cy="633.5" r="1.5" fill="#BEC3D3" fill-opacity="0.42"/>
<circle cx="109" cy="681.5" r="1.5" fill="#BEC3D3" fill-opacity="0.42"/>
<circle cx="134" cy="609.5" r="1.5" fill="#BEC3D3" fill-opacity="0.42"/>
<circle cx="134" cy="657.5" r="1.5" fill="#BEC3D3" fill-opacity="0.42"/>
<circle cx="134" cy="585.5" r="1.5" fill="#BEC3D3" fill-opacity="0.42"/>
<circle cx="134" cy="633.5" r="1.5" fill="#BEC3D3" fill-opacity="0.42"/>
<circle cx="134" cy="681.5" r="1.5" fill="#BEC3D3" fill-opacity="0.42"/>
<circle cx="158" cy="609.5" r="1.5" fill="#BEC3D3" fill-opacity="0.42"/>
<circle cx="158" cy="657.5" r="1.5" fill="#BEC3D3" fill-opacity="0.42"/>
<circle cx="158" cy="585.5" r="1.5" fill="#BEC3D3" fill-opacity="0.42"/>
<circle cx="158" cy="633.5" r="1.5" fill="#BEC3D3" fill-opacity="0.42"/>
<circle cx="158" cy="681.5" r="1.5" fill="#BEC3D3" fill-opacity="0.42"/>
</g>
<g clip-path="url(#clip12_1759_133903)">
<circle cx="37" cy="609.5" r="1.5" fill="#BEC3D3" fill-opacity="0.42"/>
<circle cx="37" cy="657.5" r="1.5" fill="#BEC3D3" fill-opacity="0.42"/>
<circle cx="37" cy="585.5" r="1.5" fill="#BEC3D3" fill-opacity="0.42"/>
<circle cx="37" cy="633.5" r="1.5" fill="#BEC3D3" fill-opacity="0.42"/>
<circle cx="37" cy="681.5" r="1.5" fill="#BEC3D3" fill-opacity="0.42"/>
<circle cx="61" cy="609.5" r="1.5" fill="#BEC3D3" fill-opacity="0.42"/>
<circle cx="61" cy="657.5" r="1.5" fill="#BEC3D3" fill-opacity="0.42"/>
<circle cx="61" cy="585.5" r="1.5" fill="#BEC3D3" fill-opacity="0.42"/>
<circle cx="61" cy="633.5" r="1.5" fill="#BEC3D3" fill-opacity="0.42"/>
<circle cx="61" cy="681.5" r="1.5" fill="#BEC3D3" fill-opacity="0.42"/>
<circle cx="85" cy="609.5" r="1.5" fill="#BEC3D3" fill-opacity="0.42"/>
<circle cx="85" cy="657.5" r="1.5" fill="#BEC3D3" fill-opacity="0.42"/>
<circle cx="85" cy="585.5" r="1.5" fill="#BEC3D3" fill-opacity="0.42"/>
<circle cx="85" cy="633.5" r="1.5" fill="#BEC3D3" fill-opacity="0.42"/>
<circle cx="85" cy="681.5" r="1.5" fill="#BEC3D3" fill-opacity="0.42"/>
<circle cx="13" cy="609.5" r="1.5" fill="#BEC3D3" fill-opacity="0.42"/>
<circle cx="13" cy="657.5" r="1.5" fill="#BEC3D3" fill-opacity="0.42"/>
<circle cx="13" cy="585.5" r="1.5" fill="#BEC3D3" fill-opacity="0.42"/>
<circle cx="13" cy="633.5" r="1.5" fill="#BEC3D3" fill-opacity="0.42"/>
<circle cx="13" cy="681.5" r="1.5" fill="#BEC3D3" fill-opacity="0.42"/>
</g>
<g clip-path="url(#clip13_1759_133903)">
<circle cx="37" cy="515.5" r="1.5" fill="#BEC3D3" fill-opacity="0.42"/>
<circle cx="37" cy="563.5" r="1.5" fill="#BEC3D3" fill-opacity="0.42"/>
<circle cx="37" cy="491.5" r="1.5" fill="#BEC3D3" fill-opacity="0.42"/>
<circle cx="37" cy="539.5" r="1.5" fill="#BEC3D3" fill-opacity="0.42"/>
<circle cx="61" cy="515.5" r="1.5" fill="#BEC3D3" fill-opacity="0.42"/>
<circle cx="61" cy="563.5" r="1.5" fill="#BEC3D3" fill-opacity="0.42"/>
<circle cx="61" cy="491.5" r="1.5" fill="#BEC3D3" fill-opacity="0.42"/>
<circle cx="61" cy="539.5" r="1.5" fill="#BEC3D3" fill-opacity="0.42"/>
<circle cx="85" cy="515.5" r="1.5" fill="#BEC3D3" fill-opacity="0.42"/>
<circle cx="85" cy="563.5" r="1.5" fill="#BEC3D3" fill-opacity="0.42"/>
<circle cx="85" cy="491.5" r="1.5" fill="#BEC3D3" fill-opacity="0.42"/>
<circle cx="85" cy="539.5" r="1.5" fill="#BEC3D3" fill-opacity="0.42"/>
<circle cx="13" cy="515.5" r="1.5" fill="#BEC3D3" fill-opacity="0.42"/>
<circle cx="13" cy="563.5" r="1.5" fill="#BEC3D3" fill-opacity="0.42"/>
<circle cx="13" cy="491.5" r="1.5" fill="#BEC3D3" fill-opacity="0.42"/>
<circle cx="13" cy="539.5" r="1.5" fill="#BEC3D3" fill-opacity="0.42"/>
</g>
<g clip-path="url(#clip14_1759_133903)">
<circle cx="1222" cy="609.5" r="1.5" fill="#BEC3D3" fill-opacity="0.42"/>
<circle cx="1222" cy="657.5" r="1.5" fill="#BEC3D3" fill-opacity="0.42"/>
<circle cx="1222" cy="585.5" r="1.5" fill="#BEC3D3" fill-opacity="0.42"/>
<circle cx="1222" cy="633.5" r="1.5" fill="#BEC3D3" fill-opacity="0.42"/>
<circle cx="1222" cy="681.5" r="1.5" fill="#BEC3D3" fill-opacity="0.42"/>
<circle cx="1246" cy="609.5" r="1.5" fill="#BEC3D3" fill-opacity="0.42"/>
<circle cx="1246" cy="657.5" r="1.5" fill="#BEC3D3" fill-opacity="0.42"/>
<circle cx="1246" cy="585.5" r="1.5" fill="#BEC3D3" fill-opacity="0.42"/>
<circle cx="1246" cy="633.5" r="1.5" fill="#BEC3D3" fill-opacity="0.42"/>
<circle cx="1246" cy="681.5" r="1.5" fill="#BEC3D3" fill-opacity="0.42"/>
<circle cx="1270" cy="609.5" r="1.5" fill="#BEC3D3" fill-opacity="0.42"/>
<circle cx="1270" cy="657.5" r="1.5" fill="#BEC3D3" fill-opacity="0.42"/>
<circle cx="1270" cy="585.5" r="1.5" fill="#BEC3D3" fill-opacity="0.42"/>
<circle cx="1270" cy="633.5" r="1.5" fill="#BEC3D3" fill-opacity="0.42"/>
<circle cx="1270" cy="681.5" r="1.5" fill="#BEC3D3" fill-opacity="0.42"/>
<circle cx="1174" cy="609.5" r="1.5" fill="#BEC3D3" fill-opacity="0.42"/>
<circle cx="1174" cy="657.5" r="1.5" fill="#BEC3D3" fill-opacity="0.42"/>
<circle cx="1174" cy="585.5" r="1.5" fill="#BEC3D3" fill-opacity="0.42"/>
<circle cx="1174" cy="633.5" r="1.5" fill="#BEC3D3" fill-opacity="0.42"/>
<circle cx="1174" cy="681.5" r="1.5" fill="#BEC3D3" fill-opacity="0.42"/>
<circle cx="1198" cy="609.5" r="1.5" fill="#BEC3D3" fill-opacity="0.42"/>
<circle cx="1198" cy="657.5" r="1.5" fill="#BEC3D3" fill-opacity="0.42"/>
<circle cx="1198" cy="585.5" r="1.5" fill="#BEC3D3" fill-opacity="0.42"/>
<circle cx="1198" cy="633.5" r="1.5" fill="#BEC3D3" fill-opacity="0.42"/>
<circle cx="1198" cy="681.5" r="1.5" fill="#BEC3D3" fill-opacity="0.42"/>
</g>
</g>
<defs>
<clipPath id="clip0_1759_133903">
<rect width="1439" height="704" fill="white" transform="translate(-0.5)"/>
</clipPath>
<clipPath id="clip1_1759_133903">
<rect width="142" height="126" fill="white" transform="translate(1127.5 312)"/>
</clipPath>
<clipPath id="clip2_1759_133903">
<rect width="142" height="177" fill="white" transform="translate(1278.5 188)"/>
</clipPath>
<clipPath id="clip3_1759_133903">
<rect width="142" height="124" fill="white" transform="translate(1072.5 8)"/>
</clipPath>
<clipPath id="clip4_1759_133903">
<rect width="161" height="74" fill="white" transform="translate(1269.5 -3)"/>
</clipPath>
<clipPath id="clip5_1759_133903">
<rect width="142" height="126" fill="white" transform="translate(149.5 142)"/>
</clipPath>
<clipPath id="clip6_1759_133903">
<rect width="142" height="126" fill="white" transform="translate(7.5 268)"/>
</clipPath>
<clipPath id="clip7_1759_133903">
<rect width="142" height="177" fill="white" transform="translate(1281.5 573)"/>
</clipPath>
<clipPath id="clip8_1759_133903">
<rect width="142" height="68" fill="white" transform="translate(734.5 638)"/>
</clipPath>
<clipPath id="clip9_1759_133903">
<rect width="142" height="126" fill="white" transform="translate(967.5 566)"/>
</clipPath>
<clipPath id="clip10_1759_133903">
<rect width="142" height="131" fill="white" transform="translate(1281.5 453)"/>
</clipPath>
<clipPath id="clip11_1759_133903">
<rect width="142" height="177" fill="white" transform="translate(96.5 573)"/>
</clipPath>
<clipPath id="clip12_1759_133903">
<rect width="142" height="177" fill="white" transform="translate(-48.5 573)"/>
</clipPath>
<clipPath id="clip13_1759_133903">
<rect width="142" height="94" fill="white" transform="translate(-48.5 479)"/>
</clipPath>
<clipPath id="clip14_1759_133903">
<rect width="112" height="177" fill="white" transform="translate(1166.5 573)"/>
</clipPath>
</defs>
</svg>
