<svg width="1280" height="580" viewBox="0 0 1280 580" fill="none" xmlns="http://www.w3.org/2000/svg">
<rect width="1280" height="580" fill="#E9D7FE"/>
<g opacity="0.3">
<mask id="mask0_1903_9323" style="mask-type:alpha" maskUnits="userSpaceOnUse" x="630" y="71" width="620" height="438">
<rect x="630" y="71" width="620" height="438" fill="url(#paint0_radial_1903_9323)"/>
</mask>
<g mask="url(#mask0_1903_9323)">
<line x1="700.1" y1="72" x2="700.1" y2="552" stroke="#6941C6" stroke-width="0.2"/>
<line x1="684.1" y1="72" x2="684.1" y2="552" stroke="#6941C6" stroke-width="0.2"/>
<line x1="668.1" y1="72" x2="668.1" y2="552" stroke="#6941C6" stroke-width="0.2"/>
<line x1="660" y1="81.9" x2="1220" y2="81.9" stroke="#6941C6" stroke-width="0.2"/>
<line x1="660" y1="225.9" x2="1220" y2="225.9" stroke="#6941C6" stroke-width="0.2"/>
<line x1="660" y1="369.9" x2="1220" y2="369.9" stroke="#6941C6" stroke-width="0.2"/>
<line x1="660" y1="97.9" x2="1220" y2="97.9" stroke="#6941C6" stroke-width="0.2"/>
<line x1="660" y1="241.9" x2="1220" y2="241.9" stroke="#6941C6" stroke-width="0.2"/>
<line x1="660" y1="385.9" x2="1220" y2="385.9" stroke="#6941C6" stroke-width="0.2"/>
<line x1="660" y1="113.9" x2="1220" y2="113.9" stroke="#6941C6" stroke-width="0.2"/>
<line x1="660" y1="257.9" x2="1220" y2="257.9" stroke="#6941C6" stroke-width="0.2"/>
<line x1="660" y1="401.9" x2="1220" y2="401.9" stroke="#6941C6" stroke-width="0.2"/>
<line x1="660" y1="129.9" x2="1220" y2="129.9" stroke="#6941C6" stroke-width="0.2"/>
<line x1="660" y1="273.9" x2="1220" y2="273.9" stroke="#6941C6" stroke-width="0.2"/>
<line x1="660" y1="417.9" x2="1220" y2="417.9" stroke="#6941C6" stroke-width="0.2"/>
<line x1="660" y1="145.9" x2="1220" y2="145.9" stroke="#6941C6" stroke-width="0.2"/>
<line x1="660" y1="289.9" x2="1220" y2="289.9" stroke="#6941C6" stroke-width="0.2"/>
<line x1="660" y1="433.9" x2="1220" y2="433.9" stroke="#6941C6" stroke-width="0.2"/>
<line x1="660" y1="161.9" x2="1220" y2="161.9" stroke="#6941C6" stroke-width="0.2"/>
<line x1="660" y1="305.9" x2="1220" y2="305.9" stroke="#6941C6" stroke-width="0.2"/>
<line x1="660" y1="449.9" x2="1220" y2="449.9" stroke="#6941C6" stroke-width="0.2"/>
<line x1="660" y1="177.9" x2="1220" y2="177.9" stroke="#6941C6" stroke-width="0.2"/>
<line x1="660" y1="321.9" x2="1220" y2="321.9" stroke="#6941C6" stroke-width="0.2"/>
<line x1="660" y1="465.9" x2="1220" y2="465.9" stroke="#6941C6" stroke-width="0.2"/>
<line x1="660" y1="193.9" x2="1220" y2="193.9" stroke="#6941C6" stroke-width="0.2"/>
<line x1="660" y1="337.9" x2="1220" y2="337.9" stroke="#6941C6" stroke-width="0.2"/>
<line x1="660" y1="481.9" x2="1220" y2="481.9" stroke="#6941C6" stroke-width="0.2"/>
<line x1="660" y1="209.9" x2="1220" y2="209.9" stroke="#6941C6" stroke-width="0.2"/>
<line x1="660" y1="353.9" x2="1220" y2="353.9" stroke="#6941C6" stroke-width="0.2"/>
<line x1="716.1" y1="72" x2="716.1" y2="552" stroke="#6941C6" stroke-width="0.2"/>
<line x1="732.1" y1="72" x2="732.1" y2="552" stroke="#6941C6" stroke-width="0.2"/>
<line x1="748.1" y1="72" x2="748.1" y2="552" stroke="#6941C6" stroke-width="0.2"/>
<line x1="764.1" y1="72" x2="764.1" y2="552" stroke="#6941C6" stroke-width="0.2"/>
<line x1="780.1" y1="72" x2="780.1" y2="552" stroke="#6941C6" stroke-width="0.2"/>
<line x1="796.1" y1="72" x2="796.1" y2="552" stroke="#6941C6" stroke-width="0.2"/>
<line x1="812.1" y1="72" x2="812.1" y2="552" stroke="#6941C6" stroke-width="0.2"/>
<line x1="828.1" y1="72" x2="828.1" y2="552" stroke="#6941C6" stroke-width="0.2"/>
<line x1="844.1" y1="72" x2="844.1" y2="552" stroke="#6941C6" stroke-width="0.2"/>
<line x1="860.1" y1="72" x2="860.1" y2="552" stroke="#6941C6" stroke-width="0.2"/>
<line x1="876.1" y1="72" x2="876.1" y2="552" stroke="#6941C6" stroke-width="0.2"/>
<line x1="892.1" y1="72" x2="892.1" y2="552" stroke="#6941C6" stroke-width="0.2"/>
<line x1="908.1" y1="72" x2="908.1" y2="552" stroke="#6941C6" stroke-width="0.2"/>
<line x1="924.1" y1="72" x2="924.1" y2="552" stroke="#6941C6" stroke-width="0.2"/>
<line x1="940.1" y1="72" x2="940.1" y2="552" stroke="#6941C6" stroke-width="0.2"/>
<line x1="956.1" y1="72" x2="956.1" y2="552" stroke="#6941C6" stroke-width="0.2"/>
<line x1="972.1" y1="72" x2="972.1" y2="552" stroke="#6941C6" stroke-width="0.2"/>
<line x1="988.1" y1="72" x2="988.1" y2="552" stroke="#6941C6" stroke-width="0.2"/>
<line x1="1004.1" y1="72" x2="1004.1" y2="552" stroke="#6941C6" stroke-width="0.2"/>
<line x1="1020.1" y1="72" x2="1020.1" y2="552" stroke="#6941C6" stroke-width="0.2"/>
<line x1="1036.1" y1="72" x2="1036.1" y2="552" stroke="#6941C6" stroke-width="0.2"/>
<line x1="1052.1" y1="72" x2="1052.1" y2="552" stroke="#6941C6" stroke-width="0.2"/>
<line x1="1068.1" y1="72" x2="1068.1" y2="552" stroke="#6941C6" stroke-width="0.2"/>
<line x1="1084.1" y1="72" x2="1084.1" y2="552" stroke="#6941C6" stroke-width="0.2"/>
<line x1="1100.1" y1="72" x2="1100.1" y2="552" stroke="#6941C6" stroke-width="0.2"/>
<line x1="1116.1" y1="72" x2="1116.1" y2="552" stroke="#6941C6" stroke-width="0.2"/>
<line x1="1132.1" y1="72" x2="1132.1" y2="552" stroke="#6941C6" stroke-width="0.2"/>
<line x1="1148.1" y1="72" x2="1148.1" y2="552" stroke="#6941C6" stroke-width="0.2"/>
<line x1="1164.1" y1="72" x2="1164.1" y2="552" stroke="#6941C6" stroke-width="0.2"/>
<line x1="1180.1" y1="72" x2="1180.1" y2="552" stroke="#6941C6" stroke-width="0.2"/>
<line x1="1196.1" y1="72" x2="1196.1" y2="552" stroke="#6941C6" stroke-width="0.2"/>
<line x1="1212.1" y1="72" x2="1212.1" y2="552" stroke="#6941C6" stroke-width="0.2"/>
</g>
</g>
<defs>
<radialGradient id="paint0_radial_1903_9323" cx="0" cy="0" r="1" gradientUnits="userSpaceOnUse" gradientTransform="translate(940 290) rotate(90) scale(219 310)">
<stop offset="0.498125" stop-color="white"/>
<stop offset="1" stop-color="white" stop-opacity="0"/>
</radialGradient>
</defs>
</svg>
